<?xml version="1.0" encoding="utf-8"?>
<!-- Uploaded to: SVG Repo, www.svgrepo.com, Generator: SVG Repo Mixer Tools -->
<svg width="800px" height="800px" viewBox="0 0 64 64" xmlns="http://www.w3.org/2000/svg" xmlns:xlink="http://www.w3.org/1999/xlink" aria-hidden="true" role="img" class="iconify iconify--emojione" preserveAspectRatio="xMidYMid meet">
<path d="M32 2v30h30C62 15.4 48.6 2 32 2" fill="#ed4c5c">
</path>
<path d="M32 62V32H2c0 16.6 13.4 30 30 30z" fill="#2a5f9e">
</path>
<g fill="#f9f9f9">
<path d="M32 62V32h30c0 16.6-13.4 30-30 30">
</path>
<path d="M32 2v30H2C2 15.4 15.4 2 32 2z">
</path>
</g>
<path fill="#2a5f9e" d="M17 20.7l3.1 2.3l-1.2-3.8l3.1-2.4h-3.8L17 13l-1.2 3.8H12l3.1 2.4l-1.2 3.8z">
</path>
<path fill="#ed4c5c" d="M47 46.7l3.1 2.3l-1.2-3.8l3.1-2.4h-3.8L47 39l-1.2 3.8H42l3.1 2.4l-1.2 3.8z">
</path>
</svg>