<svg width="19" height="25" viewBox="0 0 19 25" fill="none" xmlns="http://www.w3.org/2000/svg">
<path d="M13.3644 10.2945C13.5321 10.2945 13.6974 10.3018 13.8626 10.3166C13.9331 10.0813 13.972 9.82539 13.972 9.55922V3.67702C13.972 3.092 13.78 2.53093 13.4382 2.11726C13.0963 1.70359 12.6328 1.47119 12.1494 1.47119H8.5042V0.735915C8.50764 0.638247 8.49428 0.540779 8.46497 0.449688C8.43565 0.358596 8.39102 0.275867 8.33391 0.206743C8.27679 0.137619 8.20844 0.0836057 8.13317 0.0481272C8.05791 0.0126488 7.97737 -0.00352181 7.89667 0.000640014C7.56132 0.000640014 7.28914 0.338867 7.28914 0.735915V1.47119H3.64396C3.16058 1.47119 2.697 1.70359 2.3552 2.11726C2.0134 2.53093 1.82137 3.092 1.82137 3.67702V9.55922C1.82137 10.1442 2.0134 10.7053 2.3552 11.119C2.697 11.5326 3.16058 11.765 3.64396 11.765H9.52121C10.6087 10.8386 11.9343 10.2945 13.3644 10.2945ZM4.25149 6.61812C4.25149 6.2281 4.37951 5.85406 4.60738 5.57828C4.83525 5.3025 5.1443 5.14757 5.46655 5.14757C5.78881 5.14757 6.09786 5.3025 6.32573 5.57828C6.5536 5.85406 6.68161 6.2281 6.68161 6.61812C6.68161 7.00813 6.5536 7.38217 6.32573 7.65795C6.09786 7.93374 5.78881 8.08867 5.46655 8.08867C5.1443 8.08867 4.83525 7.93374 4.60738 7.65795C4.37951 7.38217 4.25149 7.00813 4.25149 6.61812ZM9.11173 6.61812C9.11173 6.2281 9.23975 5.85406 9.46762 5.57828C9.69549 5.3025 10.0045 5.14757 10.3268 5.14757C10.649 5.14757 10.9581 5.3025 11.186 5.57828C11.4138 5.85406 11.5419 6.2281 11.5419 6.61812C11.5419 7.00813 11.4138 7.38217 11.186 7.65795C10.9581 7.93374 10.649 8.08867 10.3268 8.08867C10.0045 8.08867 9.69549 7.93374 9.46762 7.65795C9.23975 7.38217 9.11173 7.00813 9.11173 6.61812ZM6.68161 18.3825C6.68161 16.7576 7.07772 15.2429 7.75937 13.9753H2.19804C1.61497 13.9757 1.0559 14.2563 0.643718 14.7554C0.23154 15.2545 -8.89883e-08 15.9313 0 16.637V17.6502H0.00607544C0.0473875 18.7972 0.30741 20.2339 1.37059 21.4074C2.53097 22.6912 4.53582 23.5294 7.89667 23.5294C8.00117 23.5294 8.10566 23.5294 8.20773 23.5265C7.21918 22.0795 6.67937 20.2601 6.68161 18.3825ZM18.8322 18.3825C18.8322 20.1376 18.2561 21.8208 17.2307 23.0618C16.2053 24.3028 14.8146 25 13.3644 25C11.9143 25 10.5236 24.3028 9.49815 23.0618C8.47274 21.8208 7.89667 20.1376 7.89667 18.3825C7.89667 16.6275 8.47274 14.9443 9.49815 13.7033C10.5236 12.4622 11.9143 11.765 13.3644 11.765C14.8146 11.765 16.2053 12.4622 17.2307 13.7033C18.2561 14.9443 18.8322 16.6275 18.8322 18.3825ZM13.972 15.4414C13.972 15.2464 13.908 15.0594 13.794 14.9215C13.6801 14.7836 13.5256 14.7061 13.3644 14.7061C13.2033 14.7061 13.0488 14.7836 12.9349 14.9215C12.8209 15.0594 12.7569 15.2464 12.7569 15.4414V17.6472H10.9343C10.7732 17.6472 10.6187 17.7247 10.5047 17.8626C10.3908 18.0005 10.3268 18.1875 10.3268 18.3825C10.3268 18.5775 10.3908 18.7646 10.5047 18.9024C10.6187 19.0403 10.7732 19.1178 10.9343 19.1178H12.7569V21.3236C12.7569 21.5186 12.8209 21.7057 12.9349 21.8435C13.0488 21.9814 13.2033 22.0589 13.3644 22.0589C13.5256 22.0589 13.6801 21.9814 13.794 21.8435C13.908 21.7057 13.972 21.5186 13.972 21.3236V19.1178H15.7946C15.9557 19.1178 16.1102 19.0403 16.2242 18.9024C16.3381 18.7646 16.4021 18.5775 16.4021 18.3825C16.4021 18.1875 16.3381 18.0005 16.2242 17.8626C16.1102 17.7247 15.9557 17.6472 15.7946 17.6472H13.972V15.4414Z" fill="white"/>
</svg>
