<svg xmlns="http://www.w3.org/2000/svg" xmlns:xlink="http://www.w3.org/1999/xlink" xmlns:xodm="http://www.corel.com/coreldraw/odm/2003" xml:space="preserve" width="142px" height="38px" style="shape-rendering:geometricPrecision; text-rendering:geometricPrecision; image-rendering:optimizeQuality; fill-rule:evenodd; clip-rule:evenodd" viewBox="0 0 142 37.99"> <defs> <style type="text/css"> <![CDATA[ .fil1 {fill:black;fill-rule:nonzero} .fil2 {fill:#666666;fill-rule:nonzero} .fil0 {fill:url(#id0);fill-rule:nonzero} ]]> </style> <linearGradient id="id0" gradientUnits="userSpaceOnUse" x1="4.85" y1="30.25" x2="33.1" y2="7.93"> <stop offset="0" style="stop-opacity:1; stop-color:#FA3B0C"></stop> <stop offset="1" style="stop-opacity:1; stop-color:#FF5614"></stop> </linearGradient> </defs> <g id="Capa_x0020_1"> <metadata id="CorelCorpID_0Corel-Layer"></metadata> <path class="fil0" d="M18.97 5.64l3.44 -2.31 -3.43 -2.24 -0.01 0 -3.44 2.24 3.44 2.31zm1.62 27.98l0 -26.79 -1.62 1.01 -1.61 -1.01 0 26.78 -1.83 1.23 3.44 2.25 3.44 -2.25 -1.82 -1.22zm1.87 -27.98l0 26.98 1.82 1.19 1.41 -0.92 1.82 -1.19 -1.82 -1.19 0 -2 3.36 2.19 3.22 -2.1 -3.88 -2.54 -1.09 -0.71 -1.61 -1.05 0 -1.98 -0.02 -0.02 0.02 -0.03 0 -6.23 -0.02 -0.05 0.02 -0.01 0 -2.1 1.61 -1.05 0.99 -0.65 3.86 -2.51 -3.23 -2.11 -3.23 2.11 0 -1.92 1.76 -1.15 -1.76 -1.15 -1.47 -0.96 -1.76 1.15zm4.84 9.29l0 8.44 3.23 2.11 1.62 1.05 1.64 1.07 1.59 -1.03 0 -10.61 -3.23 2.1 0 4.26 -1.62 -1.06 0 -4.23 1.62 -1.06 1.21 -0.79 3.62 -2.36 -3.23 -2.11 -3.22 2.11 -3.23 2.11zm-11.81 -9.29l0 26.98 -1.83 1.19 -1.4 -0.92 -1.82 -1.19 1.82 -1.19 0 -2 -3.36 2.19 -3.22 -2.1 3.88 -2.54 1.09 -0.71 1.61 -1.05 0 -1.98 0.01 -0.02 -0.01 -0.03 0 -6.23 0.02 -0.05 -0.02 -0.01 0 -2.1 -1.61 -1.05 -0.99 -0.65 -3.86 -2.51 3.23 -2.11 3.23 2.11 0 -1.92 -1.76 -1.15 1.76 -1.15 1.46 -0.96 1.77 1.15zm-4.84 9.29l0 8.44 -3.23 2.11 -1.62 1.05 -1.64 1.07 -1.59 -1.03 0 -10.61 3.23 2.1 0 4.26 1.62 -1.06 0 -4.23 -1.62 -1.06 -1.22 -0.79 -3.61 -2.36 3.22 -2.11 3.23 2.11 3.23 2.11z"></path> <path class="fil1" d="M55.97 19.8c0,-2.63 -2.15,-4.78 -4.78,-4.78l-4.77 0 0 9.55 4.77 0c2.63,0 4.78,-2.14 4.78,-4.77zm84.29 7.4l-2.97 0 -1.36 -2.65 -3.25 -6.37 -3.24 6.37 -1.36 2.65 -2.97 0 1.36 -2.65 6.21 -12.2 6.22 12.2 1.36 2.65zm-13.73 -14.83l0 2.65 -6.09 0 0 12.2 -2.65 0 0 -12.2 -6.1 0 0 -2.65 14.84 0zm-21.1 14.83l2.66 0 0 -14.85 -2.66 0 0 14.85zm-3.6 -14.83l0 14.85 -2.66 -2.03 -9.55 -7.37 0 9.4 -2.65 0 0 -14.81 2.65 2.04 9.55 7.36 0 -9.46 2.66 0.02zm-30.67 7.41c0,2.63 2.14,4.77 4.78,4.77l4.77 0 0 -2.84 -4.77 0 0 -2.66 7.42 0 0 8.15 -7.42 0c-4.1,0 -7.43,-3.33 -7.43,-7.42 0,-4.1 3.33,-7.43 7.43,-7.43l7.42 0 0 2.65 -7.42 0c-2.64,0 -4.78,2.14 -4.78,4.78zm-8.91 7.42l2.65 0 0 -14.85 -2.65 0 0 14.85zm-11.06 -14.83c4.1,0 7.43,3.31 7.43,7.41 0,1.82 -0.66,3.5 -1.76,4.79 -0.13,0.15 -0.28,0.3 -0.43,0.45 -1.33,1.36 -3.18,2.18 -5.22,2.18l-7.42 0 0 -14.85 7.42 0 -0.02 0.02z"></path> <path class="fil2" d="M46.3 33.46l1.22 0 -0.46 -1.49c-0.01,-0.04 -0.03,-0.11 -0.05,-0.21 -0.03,-0.1 -0.06,-0.23 -0.1,-0.39 -0.03,0.11 -0.05,0.22 -0.08,0.32 -0.02,0.1 -0.05,0.19 -0.08,0.28l-0.45 1.49zm-1.72 1.69l1.56 -4.51 1.53 0 1.56 4.51 -1.22 0 -0.23 -0.81 -1.74 0 -0.24 0.81 -1.22 0z"></path> <path id="1" class="fil2" d="M49.53 30.64l1.22 0 0 2.19c0,0.32 0.01,0.56 0.02,0.7 0.02,0.14 0.05,0.25 0.09,0.35 0.04,0.11 0.13,0.2 0.24,0.26 0.12,0.06 0.26,0.09 0.43,0.09 0.17,0 0.31,-0.03 0.43,-0.09 0.11,-0.06 0.2,-0.15 0.24,-0.26 0.04,-0.1 0.07,-0.21 0.09,-0.35 0.01,-0.14 0.02,-0.38 0.02,-0.7l0 -0.31 0 -1.88 1.23 0 0 2.38c0,0.5 -0.03,0.86 -0.09,1.1 -0.06,0.23 -0.16,0.43 -0.31,0.6 -0.15,0.18 -0.36,0.32 -0.63,0.41 -0.27,0.09 -0.59,0.14 -0.98,0.14 -0.38,0 -0.71,-0.05 -0.98,-0.14 -0.27,-0.09 -0.48,-0.23 -0.63,-0.41 -0.14,-0.17 -0.24,-0.37 -0.3,-0.6 -0.06,-0.24 -0.09,-0.6 -0.09,-1.1l0 -0.47 0 -1.91z"></path> <polygon id="2" class="fil2" points="55.12,35.15 55.12,31.7 54.11,31.7 54.11,30.64 57.35,30.64 57.35,31.7 56.35,31.7 56.35,35.15 "></polygon> <path id="3" class="fil2" d="M62.47 32.9c0,0.33 -0.06,0.63 -0.18,0.91 -0.12,0.29 -0.29,0.54 -0.52,0.76 -0.23,0.23 -0.49,0.4 -0.79,0.52 -0.29,0.12 -0.6,0.18 -0.92,0.18 -0.32,0 -0.63,-0.06 -0.92,-0.18 -0.3,-0.12 -0.55,-0.29 -0.78,-0.52 -0.23,-0.22 -0.4,-0.47 -0.53,-0.76 -0.12,-0.28 -0.17,-0.59 -0.17,-0.91 0,-0.32 0.05,-0.62 0.17,-0.91 0.13,-0.28 0.3,-0.54 0.53,-0.76 0.23,-0.22 0.48,-0.39 0.78,-0.51 0.29,-0.12 0.6,-0.18 0.92,-0.18 0.32,0 0.63,0.06 0.93,0.18 0.3,0.12 0.56,0.29 0.78,0.51 0.23,0.22 0.4,0.48 0.52,0.76 0.12,0.29 0.18,0.59 0.18,0.91zm-2.41 1.33c0.34,0 0.63,-0.13 0.85,-0.38 0.22,-0.25 0.33,-0.57 0.33,-0.95 0,-0.37 -0.11,-0.69 -0.34,-0.94 -0.22,-0.26 -0.5,-0.38 -0.84,-0.38 -0.34,0 -0.62,0.12 -0.84,0.38 -0.22,0.25 -0.34,0.56 -0.34,0.94 0,0.39 0.11,0.7 0.33,0.95 0.22,0.25 0.51,0.38 0.85,0.38z"></path> <path id="4" class="fil2" d="M68.41 35.15l-1.15 0 -0.26 -1.95c-0.02,-0.14 -0.04,-0.29 -0.05,-0.46 -0.02,-0.17 -0.03,-0.35 -0.05,-0.55 -0.03,0.19 -0.08,0.43 -0.17,0.71 -0.01,0.06 -0.03,0.1 -0.04,0.13l-0.61 2.12 -0.82 0 -0.61 -2.12c-0.01,-0.03 -0.02,-0.07 -0.04,-0.13 -0.08,-0.28 -0.14,-0.52 -0.17,-0.71 -0.01,0.17 -0.02,0.34 -0.04,0.51 -0.01,0.16 -0.03,0.33 -0.06,0.5l-0.26 1.95 -1.14 0 0.69 -4.51 1.22 0 0.68 2.32c0,0.02 0.01,0.05 0.02,0.08 0.07,0.21 0.11,0.39 0.12,0.54 0.01,-0.08 0.03,-0.17 0.05,-0.27 0.02,-0.1 0.05,-0.22 0.09,-0.35l0.69 -2.32 1.22 0 0.69 4.51z"></path> <path id="5" class="fil2" d="M70.26 33.46l1.22 0 -0.46 -1.49c-0.01,-0.04 -0.03,-0.11 -0.05,-0.21 -0.03,-0.1 -0.06,-0.23 -0.1,-0.39 -0.02,0.11 -0.05,0.22 -0.08,0.32 -0.02,0.1 -0.05,0.19 -0.07,0.28l-0.46 1.49zm-1.72 1.69l1.56 -4.51 1.54 0 1.55 4.51 -1.22 0 -0.23 -0.81 -1.74 0 -0.24 0.81 -1.22 0z"></path> <polygon id="6" class="fil2" points="74.02,35.15 74.02,31.7 73.01,31.7 73.01,30.64 76.25,30.64 76.25,31.7 75.25,31.7 75.25,35.15 "></polygon> <polygon id="7" class="fil2" points="76.88,35.15 76.88,30.64 78.13,30.64 78.13,35.15 "></polygon> <polygon id="8" class="fil2" points="82.63,35.15 78.65,35.15 80.92,31.62 79.1,31.62 79.1,30.64 82.89,30.64 80.62,34.16 82.63,34.16 "></polygon> <path id="9" class="fil2" d="M84.57 33.46l1.23 0 -0.46 -1.49c-0.02,-0.04 -0.04,-0.11 -0.06,-0.21 -0.03,-0.1 -0.06,-0.23 -0.1,-0.39 -0.02,0.11 -0.05,0.22 -0.08,0.32 -0.02,0.1 -0.05,0.19 -0.07,0.28l-0.46 1.49zm-1.72 1.69l1.56 -4.51 1.54 0 1.55 4.51 -1.22 0 -0.23 -0.81 -1.74 0 -0.23 0.81 -1.23 0z"></path> <path id="10" class="fil2" d="M91.09 30.81l0 1.35c-0.17,-0.19 -0.34,-0.33 -0.5,-0.41 -0.17,-0.09 -0.35,-0.13 -0.54,-0.13 -0.35,0 -0.64,0.12 -0.86,0.36 -0.22,0.24 -0.33,0.55 -0.33,0.94 0,0.36 0.12,0.66 0.34,0.9 0.22,0.24 0.5,0.36 0.85,0.36 0.19,0 0.37,-0.05 0.54,-0.13 0.16,-0.09 0.33,-0.23 0.5,-0.42l0 1.35c-0.19,0.09 -0.39,0.16 -0.58,0.21 -0.19,0.05 -0.39,0.07 -0.59,0.07 -0.24,0 -0.47,-0.03 -0.68,-0.09 -0.21,-0.06 -0.4,-0.15 -0.57,-0.26 -0.34,-0.23 -0.59,-0.51 -0.77,-0.86 -0.18,-0.34 -0.26,-0.73 -0.26,-1.15 0,-0.35 0.05,-0.66 0.16,-0.94 0.11,-0.29 0.28,-0.54 0.51,-0.77 0.21,-0.22 0.45,-0.39 0.72,-0.5 0.27,-0.1 0.56,-0.16 0.89,-0.16 0.2,0 0.4,0.03 0.59,0.07 0.19,0.05 0.39,0.12 0.58,0.21z"></path> <polygon id="11" class="fil2" points="91.81,35.15 91.81,30.64 93.06,30.64 93.06,35.15 "></polygon> <path id="12" class="fil2" d="M98.67 32.9c0,0.33 -0.06,0.63 -0.18,0.91 -0.12,0.29 -0.29,0.54 -0.52,0.76 -0.23,0.23 -0.49,0.4 -0.79,0.52 -0.29,0.12 -0.6,0.18 -0.91,0.18 -0.33,0 -0.64,-0.06 -0.93,-0.18 -0.29,-0.12 -0.55,-0.29 -0.78,-0.52 -0.23,-0.22 -0.4,-0.47 -0.52,-0.76 -0.12,-0.28 -0.18,-0.59 -0.18,-0.91 0,-0.32 0.06,-0.62 0.18,-0.91 0.12,-0.28 0.29,-0.54 0.52,-0.76 0.23,-0.22 0.49,-0.39 0.78,-0.51 0.29,-0.12 0.6,-0.18 0.93,-0.18 0.31,0 0.62,0.06 0.92,0.18 0.3,0.12 0.56,0.29 0.78,0.51 0.23,0.22 0.4,0.48 0.52,0.76 0.12,0.29 0.18,0.59 0.18,0.91zm-2.41 1.33c0.34,0 0.63,-0.13 0.85,-0.38 0.22,-0.25 0.33,-0.57 0.33,-0.95 0,-0.37 -0.11,-0.69 -0.34,-0.94 -0.22,-0.26 -0.5,-0.38 -0.84,-0.38 -0.34,0 -0.62,0.12 -0.84,0.38 -0.22,0.25 -0.34,0.56 -0.34,0.94 0,0.39 0.11,0.7 0.33,0.95 0.22,0.25 0.51,0.38 0.85,0.38zm0.89 -5.15l-0.95 1.08 -0.47 0 0.56 -1.08 0.86 0z"></path> <path id="13" class="fil2" d="M99.44 35.15l0 -4.51 1.19 0 1.7 2.32c0.03,0.04 0.09,0.14 0.16,0.28 0.08,0.14 0.16,0.31 0.25,0.51 -0.03,-0.19 -0.04,-0.35 -0.06,-0.5 -0.01,-0.14 -0.01,-0.27 -0.01,-0.38l0 -2.23 1.18 0 0 4.51 -1.18 0 -1.71 -2.33c-0.03,-0.05 -0.09,-0.14 -0.16,-0.29 -0.08,-0.14 -0.16,-0.31 -0.25,-0.5 0.03,0.19 0.05,0.36 0.06,0.5 0.01,0.15 0.02,0.28 0.02,0.39l0 2.23 -1.19 0z"></path> <path id="14" class="fil2" d="M106.78 35.15l0 -4.51 1.29 0c0.5,0 0.85,0.02 1.05,0.07 0.2,0.04 0.37,0.12 0.51,0.23 0.16,0.12 0.29,0.28 0.38,0.47 0.08,0.19 0.13,0.4 0.13,0.63 0,0.35 -0.09,0.64 -0.26,0.85 -0.17,0.22 -0.42,0.37 -0.75,0.44l1.23 1.82 -1.39 0 -1.03 -1.77 0 1.77 -1.16 0zm1.16 -2.38l0.22 0c0.27,0 0.46,-0.05 0.58,-0.14 0.13,-0.09 0.19,-0.23 0.19,-0.42 0,-0.23 -0.06,-0.39 -0.17,-0.48 -0.12,-0.1 -0.31,-0.14 -0.58,-0.14l-0.24 0 0 1.18z"></path> <path id="15" class="fil2" d="M111.98 35.15l-1.15 0 0 -4.51 1.28 0c0.5,0 0.86,0.02 1.06,0.07 0.2,0.05 0.38,0.14 0.52,0.25 0.16,0.14 0.29,0.31 0.38,0.52 0.08,0.21 0.13,0.44 0.13,0.69 0,0.27 -0.05,0.5 -0.13,0.71 -0.09,0.2 -0.21,0.37 -0.38,0.5 -0.13,0.1 -0.28,0.17 -0.45,0.21 -0.17,0.05 -0.45,0.07 -0.83,0.07l-0.21 0 -0.22 0 0 1.49zm0 -2.48l0.23 0c0.3,0 0.5,-0.04 0.62,-0.12 0.12,-0.08 0.18,-0.22 0.18,-0.42 0,-0.19 -0.06,-0.32 -0.18,-0.4 -0.11,-0.08 -0.31,-0.12 -0.61,-0.12l-0.24 0 0 1.06z"></path> <path id="16" class="fil2" d="M115.7 33.46l1.22 0 -0.46 -1.49c-0.01,-0.04 -0.03,-0.11 -0.06,-0.21 -0.02,-0.1 -0.05,-0.23 -0.09,-0.39 -0.03,0.11 -0.05,0.22 -0.08,0.32 -0.03,0.1 -0.05,0.19 -0.08,0.28l-0.45 1.49zm-1.72 1.69l1.55 -4.51 1.54 0 1.56 4.51 -1.22 0 -0.23 -0.81 -1.75 0 -0.23 0.81 -1.22 0z"></path> <path id="17" class="fil2" d="M121.83 35.15l0 -2.06 -1.57 -2.45 1.41 0 0.6 1.16c0.01,0.01 0.01,0.02 0.02,0.03 0.06,0.12 0.11,0.24 0.13,0.35 0.02,-0.1 0.07,-0.21 0.14,-0.33 0.01,-0.03 0.02,-0.04 0.02,-0.05l0.6 -1.16 1.41 0 -1.57 2.45 0 2.06 -1.19 0z"></path> <path id="18" class="fil2" d="M129.84 30.64l0.56 2.14c0.03,0.1 0.06,0.2 0.08,0.3 0.02,0.11 0.05,0.23 0.07,0.36 0.03,-0.16 0.06,-0.29 0.08,-0.39 0.02,-0.11 0.04,-0.19 0.06,-0.27l0.53 -2.14 1.24 0 -1.27 4.51 -1.14 0 -0.56 -1.93c-0.02,-0.07 -0.05,-0.2 -0.1,-0.4 -0.02,-0.08 -0.04,-0.15 -0.05,-0.2 -0.01,0.04 -0.02,0.1 -0.04,0.18 -0.05,0.2 -0.09,0.34 -0.11,0.42l-0.55 1.93 -1.14 0 -1.27 -4.51 1.24 0 0.52 2.15c0.02,0.12 0.04,0.23 0.07,0.34 0.02,0.11 0.04,0.22 0.06,0.34 0.02,-0.09 0.04,-0.18 0.06,-0.27 0.03,-0.1 0.06,-0.23 0.1,-0.41l0.57 -2.15 0.99 0z"></path> <polygon id="19" class="fil2" points="132.89,35.15 132.89,30.64 135.65,30.64 135.65,31.63 134.08,31.63 134.08,32.41 135.56,32.41 135.56,33.37 134.08,33.37 134.08,34.14 135.65,34.14 135.65,35.15 "></polygon> <path id="20" class="fil2" d="M137.6 32.44l0.24 0c0.31,0 0.52,-0.03 0.63,-0.1 0.11,-0.07 0.17,-0.18 0.17,-0.35 0,-0.17 -0.05,-0.28 -0.16,-0.35 -0.1,-0.07 -0.31,-0.11 -0.62,-0.11l-0.26 0 0 0.91zm-1.14 2.71l0 -4.51 1.23 0c0.51,0 0.87,0.02 1.07,0.05 0.2,0.03 0.38,0.09 0.52,0.17 0.17,0.09 0.3,0.21 0.38,0.37 0.09,0.15 0.13,0.33 0.13,0.54 0,0.25 -0.06,0.46 -0.19,0.61 -0.13,0.15 -0.34,0.26 -0.63,0.34 0.32,0.02 0.57,0.14 0.75,0.34 0.18,0.2 0.27,0.47 0.27,0.8 0,0.24 -0.05,0.45 -0.15,0.63 -0.1,0.19 -0.24,0.33 -0.43,0.43 -0.16,0.08 -0.35,0.14 -0.57,0.17 -0.23,0.04 -0.6,0.06 -1.11,0.06l-1.27 0zm1.14 -0.92l0.43 0c0.29,0 0.5,-0.04 0.62,-0.11 0.12,-0.08 0.18,-0.2 0.18,-0.37 0,-0.19 -0.06,-0.32 -0.17,-0.4 -0.11,-0.07 -0.31,-0.11 -0.61,-0.11l-0.45 0 0 0.99z"></path> </g> </svg>