<svg width="32" height="25" viewBox="0 0 32 25" fill="none" xmlns="http://www.w3.org/2000/svg">
<path d="M27.043 20.2743C27.0458 20.5264 26.9784 20.856 26.9083 21.1277C26.4186 23.0385 24.2437 25.1827 21.1825 24.9876C18.4081 24.8112 16.1484 23.5249 16.1484 21.721C16.1484 19.9171 18.4026 18.4543 21.1825 18.4543C23.9624 18.4543 27.0255 18.4704 27.043 20.2743Z" fill="white"/>
<path d="M21.1828 18.7576C19.6895 18.7576 16.2815 19.1567 15.4994 19.1567C14.1177 19.1567 12.9971 19.994 12.9971 21.0274C12.9971 21.5244 13.2609 21.9734 13.6833 22.3084C13.6833 22.3084 14.6111 23.2072 16.2824 22.776C17.0138 22.5872 18.2036 21.185 20.2982 20.9623C21.3414 20.851 23.2958 21.6304 26.7306 21.6492C26.8781 21.3427 26.9086 21.1298 26.9086 21.1298C26.9086 19.3241 23.9627 18.7576 21.1828 18.7576Z" fill="#F1ADB6"/>
<path d="M26.9088 21.1276C26.9088 21.1276 28.9232 20.733 30.1757 19.142C31.6357 17.2864 31.4439 15.3008 31.4439 15.3008C32.9233 12.6284 30.9827 10.1225 30.9827 10.1225C30.79 7.3013 28.9841 6.13255 28.9841 6.13255C27.8118 3.4414 25.2182 2.71806 25.2182 2.71806C23.1817 0.417086 19.5689 0.491023 19.5689 0.491023C19.5689 0.491023 16.184 -0.707122 11.5373 0.639789C10.769 0.862493 8.19381 1.38184 6.31041 2.49536C0.374291 6.00516 -0.0748842 11.4783 0.00812548 12.3682C0.468368 17.3417 4.08114 18.2325 6.38696 18.7518C6.92468 20.162 8.904 22.7605 12.4587 21.7957C16.8397 21.0537 18.6844 19.7914 19.7607 19.7914C20.8371 19.7914 23.8347 20.9049 26.9088 21.1276Z" fill="white"/>
<path d="M15.8314 13.1308C17.9786 12.0129 19.1426 12.1171 20.17 12.2071C20.4965 12.2356 20.8055 12.2578 21.1182 12.2561C22.9481 12.216 24.4303 11.4712 25.0861 10.7506C25.1613 10.661 25.1976 10.5468 25.1876 10.4319C25.1776 10.3171 25.1219 10.2104 25.0322 10.1342C24.9426 10.0581 24.8259 10.0185 24.7066 10.0236C24.5874 10.0287 24.4748 10.0782 24.3925 10.1617C23.887 10.7176 22.641 11.3314 21.097 11.3652C20.8203 11.3733 20.5427 11.3465 20.2549 11.3207C19.1527 11.2218 17.784 11.1007 15.3933 12.3469C14.7799 12.6667 13.9388 12.7852 13.0275 12.8743C11.0012 10.0495 12.2205 7.58908 12.5691 7.00292C12.6032 7.0047 12.6364 7.01539 12.6715 7.01539C13.0404 7.01539 13.4112 6.92809 13.7469 6.74458C13.8492 6.68445 13.9233 6.58824 13.9534 6.47633C13.9836 6.36441 13.9675 6.24555 13.9085 6.14488C13.8496 6.04422 13.7524 5.96964 13.6376 5.93692C13.5227 5.90421 13.3992 5.91592 13.2931 5.96958C13.003 6.12385 12.6632 6.16671 12.3418 6.08958C12.0203 6.01246 11.7408 5.82104 11.5592 5.55357C11.4906 5.46016 11.3874 5.39585 11.271 5.374C11.1546 5.35215 11.034 5.37443 10.9341 5.43622C10.8343 5.49801 10.763 5.59456 10.7349 5.70582C10.7069 5.81709 10.7243 5.93451 10.7835 6.03371C11.0021 6.36421 11.3101 6.61274 11.6579 6.77933C11.1773 7.72181 10.2651 10.2001 12.001 12.9714C10.7798 13.0872 9.55678 13.2538 8.5994 13.8497C7.92651 14.2755 7.33955 14.8162 6.86727 15.4452C6.28712 15.349 4.163 14.8439 3.79222 12.5669C4.0228 12.3941 4.20911 12.1661 4.3244 11.8846C4.34669 11.8302 4.35766 11.7721 4.3567 11.7136C4.35574 11.6551 4.34286 11.5974 4.31879 11.5437C4.29472 11.49 4.25994 11.4414 4.21644 11.4007C4.17293 11.36 4.12155 11.328 4.06523 11.3064C4.00891 11.2849 3.94875 11.2743 3.88818 11.2752C3.82762 11.2762 3.76784 11.2886 3.71226 11.3119C3.65667 11.3351 3.60637 11.3687 3.56423 11.4107C3.52208 11.4527 3.48892 11.5024 3.46664 11.5568C3.43176 11.6504 3.37626 11.7356 3.30396 11.8065C3.23167 11.8774 3.1443 11.9323 3.0479 11.9674C2.95021 11.9988 2.84667 12.0094 2.74433 11.9987C2.64199 11.9879 2.54326 11.956 2.45484 11.9051C2.40191 11.8766 2.3437 11.8586 2.28354 11.8519C2.22337 11.8452 2.16243 11.85 2.10419 11.866C1.98657 11.8984 1.8871 11.9746 1.82766 12.0779C1.76821 12.1811 1.75367 12.303 1.78723 12.4166C1.82078 12.5302 1.89969 12.6262 2.00659 12.6836C2.26853 12.8244 2.54892 12.8957 2.82746 12.8957C2.86159 12.8957 2.89387 12.8805 2.928 12.8787C3.36702 15.0283 5.12591 15.9725 6.37013 16.2585C6.20722 16.5933 6.10401 16.9523 6.06484 17.3203C6.05409 17.438 6.09217 17.5549 6.17069 17.6455C6.24922 17.736 6.36176 17.7927 6.48358 17.8032L6.52508 17.8049C6.64036 17.8049 6.75145 17.7632 6.83646 17.688C6.92148 17.6128 6.97426 17.5096 6.9844 17.3987C7.08402 16.3182 8.15115 15.1895 9.09931 14.5971C9.98843 14.0439 11.2898 13.9272 12.5497 13.8141C13.7718 13.7063 14.9266 13.603 15.8314 13.1308ZM27.6981 11.791C27.669 11.8424 27.6507 11.8988 27.6442 11.957C27.6377 12.0152 27.6431 12.074 27.6602 12.1302C27.6772 12.1864 27.7055 12.2387 27.7435 12.2843C27.7815 12.3299 27.8285 12.3678 27.8816 12.3959C27.9348 12.424 27.9932 12.4417 28.0534 12.448C28.1137 12.4542 28.1746 12.449 28.2328 12.4325C28.3502 12.3993 28.4492 12.3224 28.5079 12.2186C28.5254 12.1884 30.2068 9.14622 27.0589 7.1018C26.9574 7.03588 26.8329 7.01162 26.7129 7.03434C26.5929 7.05706 26.4871 7.1249 26.4188 7.22295C26.3506 7.321 26.3255 7.44122 26.349 7.55715C26.3725 7.67309 26.4427 7.77526 26.5443 7.84118C28.9829 9.42504 27.7516 11.6948 27.6981 11.791ZM8.58096 4.59861C8.65416 4.59885 8.72635 4.58215 8.7915 4.54991C8.85665 4.51768 8.91286 4.47084 8.95542 4.41332C10.2928 2.61655 12.1448 3.23121 12.2232 3.25972C12.3368 3.29593 12.4606 3.2881 12.5683 3.23787C12.676 3.18764 12.7593 3.09894 12.8006 2.99051C12.8419 2.88207 12.8379 2.76239 12.7896 2.65671C12.7412 2.55103 12.6523 2.46764 12.5414 2.42413C11.656 2.107 9.6112 2.00723 8.20649 3.89398C8.15718 3.96052 8.12781 4.03889 8.12159 4.1205C8.11536 4.20211 8.13254 4.2838 8.17123 4.35659C8.20992 4.42939 8.26862 4.49049 8.3409 4.53318C8.41318 4.57588 8.49623 4.59851 8.58096 4.59861ZM20.6377 2.91676C22.6898 2.75552 23.6232 4.1924 23.6657 4.2601C23.7277 4.36205 23.8291 4.43603 23.9476 4.46576C24.0062 4.48049 24.0673 4.48391 24.1274 4.47583C24.1874 4.46775 24.2452 4.44832 24.2975 4.41867C24.3497 4.38901 24.3954 4.34971 24.432 4.30299C24.4685 4.25627 24.4952 4.20307 24.5104 4.1464C24.5256 4.08974 24.5292 4.03073 24.5208 3.97275C24.5125 3.91476 24.4923 3.85894 24.4616 3.80846C24.4118 3.7274 23.2257 1.83263 20.5657 2.02861C20.5053 2.03318 20.4465 2.04918 20.3925 2.07571C20.3385 2.10224 20.2905 2.13878 20.2511 2.18324C20.1717 2.27304 20.1324 2.38965 20.1419 2.50743C20.1514 2.6252 20.209 2.73449 20.302 2.81126C20.395 2.88802 20.5157 2.92597 20.6377 2.91676ZM29.077 15.9324C28.8501 15.92 28.6001 16.0937 28.5798 16.3395C28.578 16.3556 28.4313 17.8709 26.8182 18.3831C26.7127 18.4151 26.6227 18.4827 26.5646 18.5735C26.5065 18.6644 26.4842 18.7724 26.5018 18.8778C26.5193 18.9832 26.5756 19.079 26.6603 19.1477C26.745 19.2163 26.8525 19.2532 26.963 19.2516C27.0119 19.2516 27.0605 19.2441 27.1069 19.2293C29.2946 18.5363 29.492 16.4999 29.4994 16.4135C29.5091 16.2957 29.4701 16.1789 29.391 16.0888C29.3118 15.9986 29.1989 15.9424 29.077 15.9324Z" fill="#FF9393"/>
<path d="M6.24775 11.6037C6.22961 11.6608 6.22357 11.7209 6.22998 11.7804C6.23639 11.8398 6.25513 11.8974 6.28508 11.9497C6.31503 12.0021 6.35557 12.048 6.4043 12.0849C6.45302 12.1217 6.50893 12.1487 6.56869 12.1643C6.62845 12.1798 6.69084 12.1836 6.75214 12.1754C6.81345 12.1672 6.87241 12.1471 6.92551 12.1164C6.97862 12.0857 7.02478 12.045 7.06125 11.9967C7.09772 11.9484 7.12376 11.8935 7.1378 11.8353C7.2266 11.5266 7.43311 11.2619 7.71578 11.0943C7.99846 10.9268 8.33634 10.8688 8.66149 10.932C8.72078 10.944 8.78193 10.9446 8.84146 10.9338C8.90099 10.9229 8.95772 10.9009 9.00842 10.8689C9.05913 10.8368 9.10281 10.7955 9.13696 10.7472C9.17112 10.6989 9.19509 10.6445 9.20751 10.5873C9.21992 10.53 9.22054 10.4709 9.20932 10.4134C9.1981 10.3559 9.17527 10.3011 9.14212 10.2522C9.10898 10.2032 9.06617 10.161 9.01615 10.128C8.96612 10.095 8.90986 10.0719 8.85057 10.0599C8.46675 9.9847 8.06901 10.0112 7.6995 10.1365C6.62406 8.36022 6.83343 6.60888 6.8362 6.59017C6.85195 6.47319 6.8192 6.35494 6.74509 6.26116C6.67098 6.16739 6.56151 6.10571 6.44052 6.08954C6.31972 6.07453 6.19765 6.10601 6.10067 6.17717C6.00369 6.24834 5.93958 6.35349 5.92217 6.46991C5.91018 6.55632 5.66392 8.53304 6.90261 10.5801C6.5864 10.8529 6.35892 11.2085 6.24775 11.6037ZM16.5585 9.40337C16.7426 9.24156 16.9833 9.15301 17.2322 9.15549C17.4811 9.15797 17.7198 9.25129 17.9005 9.41673C17.9885 9.49851 18.1065 9.54336 18.2286 9.54153C18.3507 9.53969 18.4672 9.49131 18.5526 9.40693C18.6378 9.32223 18.6847 9.20829 18.683 9.09018C18.6813 8.97207 18.631 8.85946 18.5433 8.77712C18.335 8.5857 18.0833 8.44386 17.8082 8.36289C18.0812 7.45783 17.9733 7.05607 17.7197 6.30333C17.6695 6.15605 17.6212 6.00817 17.5749 5.85971L17.5472 5.77062C17.2115 4.69452 16.9892 3.98454 17.6275 2.98238C17.6916 2.88173 17.7116 2.76062 17.6833 2.64568C17.6549 2.53074 17.5804 2.43139 17.4762 2.3695C17.372 2.3076 17.2466 2.28821 17.1276 2.31561C17.0086 2.34301 16.9057 2.41494 16.8416 2.51559C15.9857 3.85894 16.3002 4.86467 16.6646 6.02896L16.6922 6.11804C16.7466 6.29086 16.7964 6.4423 16.8426 6.57859C17.0704 7.2565 17.1395 7.48366 16.861 8.30321C16.5127 8.36443 16.1895 8.52015 15.9295 8.75218C15.8432 8.83348 15.7934 8.94415 15.7906 9.06049C15.7878 9.17684 15.8322 9.28963 15.9144 9.37472C15.9966 9.45982 16.11 9.51046 16.2304 9.51581C16.3508 9.52117 16.4685 9.48081 16.5585 9.40337ZM22.4291 6.74429C22.703 6.74508 22.9737 6.68696 23.2214 6.57414C23.3321 6.52382 23.4175 6.43309 23.459 6.32191C23.5004 6.21073 23.4944 6.08821 23.4423 5.9813C23.3902 5.8744 23.2962 5.79186 23.1811 5.75185C23.066 5.71184 22.9392 5.71763 22.8285 5.76795C22.6018 5.868 22.3443 5.88165 22.1076 5.80616C21.8709 5.73067 21.6724 5.57162 21.552 5.36085C21.5246 5.30733 21.4863 5.25968 21.4394 5.22073C21.3926 5.18178 21.3381 5.15233 21.2792 5.13413C21.2203 5.11592 21.1583 5.10934 21.0967 5.11477C21.0351 5.12019 20.9753 5.13752 20.9208 5.16572C20.8663 5.19392 20.8183 5.23241 20.7795 5.27891C20.7407 5.32541 20.712 5.37896 20.6951 5.43639C20.6781 5.49382 20.6733 5.55395 20.681 5.6132C20.6886 5.67246 20.7085 5.72963 20.7394 5.78131C20.9054 6.08063 21.1526 6.31669 21.4404 6.4806C20.9451 7.64312 21.2264 8.87779 21.4561 9.53253C21.4736 9.58999 21.503 9.64344 21.5425 9.68967C21.5819 9.7359 21.6306 9.77398 21.6856 9.80161C21.7407 9.82924 21.8009 9.84587 21.8628 9.85049C21.9246 9.85511 21.9868 9.84764 22.0456 9.82851C22.1043 9.80939 22.1585 9.77901 22.2049 9.73919C22.2512 9.69936 22.2888 9.65092 22.3153 9.59676C22.3418 9.5426 22.3567 9.48383 22.3592 9.42396C22.3616 9.3641 22.3515 9.30438 22.3295 9.24836C22.1746 8.80474 21.8739 7.68409 22.3277 6.73092C22.3627 6.7327 22.395 6.74429 22.4291 6.74429ZM26.8535 15.1438C26.85 15.0853 26.8345 15.028 26.8079 14.9754C26.7813 14.9227 26.7442 14.8757 26.6986 14.837C26.6531 14.7983 26.6 14.7687 26.5425 14.7499C26.4851 14.7312 26.4243 14.7237 26.3638 14.7278C26.1426 14.7425 25.9206 14.7149 25.7105 14.6466C25.5004 14.5783 25.3064 14.4705 25.1395 14.3296C24.9727 14.1886 24.8363 14.0172 24.7382 13.8252C24.6401 13.6332 24.5823 13.4244 24.568 13.2107C24.5576 13.0936 24.5006 12.9849 24.4089 12.9076C24.3171 12.8304 24.1979 12.7905 24.0764 12.7965C23.9545 12.8049 23.841 12.8596 23.7607 12.9485C23.6803 13.0375 23.6396 13.1535 23.6475 13.2713C23.6853 13.7969 23.8929 14.2708 24.2083 14.6565C23.4667 15.4992 22.4955 15.7388 21.9541 15.8003C21.4754 15.8555 21.0567 15.8083 20.5725 15.7531C20.1288 15.7041 19.6271 15.648 19.0063 15.6658L19.0017 15.6667C18.9833 15.4119 18.9206 15.0404 18.7204 14.7313C18.6516 14.6398 18.5494 14.5769 18.4344 14.5554C18.3194 14.5339 18.2003 14.5553 18.101 14.6154C18.0018 14.6755 17.9299 14.7697 17.8999 14.879C17.8698 14.9884 17.8839 15.1046 17.9392 15.2043C18.0628 15.3959 18.0859 15.7014 18.0859 15.8502C17.621 16.0114 17.2189 16.2484 16.8555 16.4773C16.2062 16.8853 15.6943 17.2078 14.9241 17.0403C14.2268 16.8862 13.5286 16.855 12.9365 16.9352C12.8443 16.7116 12.6985 16.4444 12.4735 16.2386C12.3846 16.1574 12.2659 16.1137 12.1436 16.1171C12.0213 16.1204 11.9054 16.1705 11.8214 16.2564C11.7374 16.3423 11.6921 16.4569 11.6956 16.575C11.699 16.6931 11.7509 16.8051 11.8398 16.8862C11.9192 16.9584 11.9819 17.0635 12.0326 17.1686C11.0153 17.573 10.5052 18.2492 10.4812 18.2821C10.4323 18.3486 10.4033 18.4269 10.3973 18.5083C10.3914 18.5897 10.4088 18.6711 10.4475 18.7435C10.4863 18.816 10.545 18.8768 10.6171 18.9193C10.6893 18.9617 10.7722 18.9841 10.8566 18.9841C10.9295 18.9843 11.0014 18.9678 11.0665 18.9361C11.1316 18.9043 11.188 18.8582 11.2311 18.8015C11.2357 18.7943 11.7421 18.1396 12.741 17.875C13.2575 17.7378 13.9981 17.7494 14.7203 17.908C14.9223 17.9525 15.1095 17.9677 15.2912 17.9703C15.377 18.1645 15.4102 18.3952 15.4148 18.4808C15.4216 18.5943 15.473 18.701 15.5586 18.7792C15.6441 18.8573 15.7573 18.901 15.875 18.9012L15.8999 18.9003C16.0216 18.8941 16.1358 18.8416 16.2176 18.7543C16.2993 18.667 16.342 18.552 16.3362 18.4344C16.3208 18.227 16.2806 18.0219 16.2163 17.8233C16.6415 17.6746 17.0113 17.4421 17.3591 17.2238C17.8866 16.8916 18.3856 16.5771 19.0377 16.5566C19.5837 16.5379 20.0338 16.5887 20.4682 16.6377C20.9054 16.6867 21.3352 16.7187 21.8093 16.692C21.8932 16.9174 21.8868 17.2185 21.8739 17.3191C21.8661 17.3819 21.8721 17.4455 21.8915 17.5058C21.911 17.5661 21.9434 17.6218 21.9867 17.6691C22.03 17.7165 22.0831 17.7545 22.1427 17.7806C22.2023 17.8067 22.2669 17.8204 22.3323 17.8207C22.4441 17.8205 22.552 17.7811 22.636 17.7098C22.72 17.6386 22.7743 17.5402 22.7888 17.4332C22.8226 17.141 22.8042 16.8454 22.7344 16.5593C23.5759 16.3436 24.33 15.8868 24.8973 15.2489C25.3545 15.5217 25.8883 15.6502 26.4246 15.6168C26.485 15.6129 26.5439 15.5977 26.5981 15.5718C26.6523 15.5459 26.7007 15.51 26.7405 15.4661C26.7804 15.4222 26.8109 15.3711 26.8302 15.3158C26.8496 15.2605 26.8575 15.202 26.8535 15.1438Z" fill="#FF7575"/>
</svg>
