<?xml version="1.0" encoding="utf-8"?>
<!-- Generator: Adobe Illustrator 19.0.1, SVG Export Plug-In . SVG Version: 6.00 Build 0)  -->
<svg version="1.1" id="Layer_1" xmlns="http://www.w3.org/2000/svg" xmlns:xlink="http://www.w3.org/1999/xlink" x="0px" y="0px"
	 viewBox="600 50 680 674" style="enable-background:new 600 50 680 674;" xml:space="preserve">
<style type="text/css">
	.st0{fill:#FFFFFF;}
	.st1{fill:#128807;}
	.st2{fill:#FF9933;}
	.st3{fill:#000088;}
</style>
<g>
	<g id="XMLID_1_">
		<g>
			<path class="st0" d="M1245.6,279c11.9,33.8,18.4,70.1,18.4,108s-6.5,74.2-18.4,108H634.4c-11.9-33.8-18.4-70.1-18.4-108
				s6.5-74.2,18.4-108H1245.6z"/>
			<path class="st1" d="M634.4,495h611.1c-16.3,46-42.6,87.3-76.5,121.1C1110.5,674.7,1029.5,711,940,711s-170.5-36.3-229.1-94.9
				C677.1,582.3,650.7,541,634.4,495z"/>
			<path class="st2" d="M1245.6,279H634.4c16.3-46,42.6-87.3,76.5-121.1C769.5,99.3,850.5,63,940,63
				C1081.1,63,1201.1,153.2,1245.6,279z"/>
		</g>
	</g>
</g>
<g>
	<circle class="st3" cx="827.5" cy="312" r="79"/>
	<circle class="st0" cx="827.5" cy="312" r="69.1"/>
	<circle class="st3" cx="827.5" cy="312" r="13.8"/>
	<g>
		<g>
			<g id="b">
				<g id="a">
					<circle class="st3" cx="896.1" cy="321" r="3.5"/>
					<path class="st3" d="M827.5,381.1l2.4-41.5l-2.4-19.8l-2.4,19.8L827.5,381.1z"/>
				</g>
				<g transform="rotate(15)">
					<g id="a_1_">
						<circle class="st3" cx="891.4" cy="338.5" r="3.5"/>
						<path class="st3" d="M809.6,378.8l13-39.5l2.8-19.7l-7.4,18.5L809.6,378.8z"/>
					</g>
				</g>
			</g>
			<g id="c">
				<g id="b_1_">
					<g id="a_2_">
						<circle class="st3" cx="882.4" cy="354.1" r="3.5"/>
						<path class="st3" d="M792.9,371.9l22.8-34.7l7.8-18.3l-11.9,15.9L792.9,371.9z"/>
					</g>
					<g transform="rotate(30)">
						<g id="a_3_">
							<circle class="st3" cx="869.6" cy="366.9" r="3.5"/>
							<path class="st3" d="M778.6,360.9l31-27.7l12.3-15.6l-15.6,12.3L778.6,360.9z"/>
						</g>
					</g>
				</g>
			</g>
			<g>
				<g id="d">
					<g id="b_2_">
						<g id="a_4_">
							<circle class="st3" cx="854" cy="375.9" r="3.5"/>
							<path class="st3" d="M767.6,346.6l37.1-18.7l15.9-11.9l-18.3,7.8L767.6,346.6z"/>
						</g>
						<g transform="rotate(15)">
							<g id="a_5_">
								<circle class="st3" cx="836.5" cy="380.6" r="3.5"/>
								<path class="st3" d="M760.7,329.9l40.7-8.4l18.5-7.4l-19.7,2.8L760.7,329.9z"/>
							</g>
						</g>
					</g>
					<g id="c_1_">
						<g id="b_3_">
							<g id="a_6_">
								<circle class="st3" cx="818.5" cy="380.6" r="3.5"/>
								<path class="st3" d="M758.4,312l41.5,2.4l19.8-2.4l-19.8-2.4L758.4,312z"/>
							</g>
							<g transform="rotate(60)">
								<g id="a_7_">
									<circle class="st3" cx="801" cy="375.9" r="3.5"/>
									<path class="st3" d="M760.7,294.1l39.5,13l19.7,2.8l-18.5-7.4L760.7,294.1z"/>
								</g>
							</g>
						</g>
					</g>
				</g>
				<g>
					<g>
						<g>
							<g id="b_4_">
								<g id="a_8_">
									<circle class="st3" cx="785.4" cy="366.9" r="3.5"/>
									<path class="st3" d="M767.6,277.4l34.7,22.8l18.3,7.8l-15.9-11.9L767.6,277.4z"/>
								</g>
								<g transform="rotate(15)">
									<g id="a_9_">
										<circle class="st3" cx="772.6" cy="354.1" r="3.5"/>
										<path class="st3" d="M778.6,263.1l27.7,31l15.6,12.3l-12.3-15.6L778.6,263.1z"/>
									</g>
								</g>
							</g>
							<g id="c_2_">
								<g id="b_5_">
									<g id="a_10_">
										<circle class="st3" cx="763.6" cy="338.5" r="3.5"/>
										<path class="st3" d="M792.9,252.1l18.7,37.1l11.9,15.9l-7.8-18.3L792.9,252.1z"/>
									</g>
									<g transform="rotate(30)">
										<g id="a_11_">
											<circle class="st3" cx="758.9" cy="321" r="3.5"/>
											<path class="st3" d="M809.6,245.2l8.4,40.7l7.4,18.5l-2.8-19.7L809.6,245.2z"/>
										</g>
									</g>
								</g>
							</g>
							<g>
								<g id="d_1_">
									<g id="b_6_">
										<g id="a_12_">
											<circle class="st3" cx="758.9" cy="303" r="3.5"/>
											<path class="st3" d="M827.5,242.9l-2.4,41.5l2.4,19.8l2.4-19.8L827.5,242.9z"/>
										</g>
										<g transform="rotate(15)">
											<g id="a_13_">
												<circle class="st3" cx="763.6" cy="285.5" r="3.5"/>
												<path class="st3" d="M845.4,245.2l-13,39.5l-2.8,19.7l7.4-18.5L845.4,245.2z"/>
											</g>
										</g>
									</g>
									<g id="c_3_">
										<g id="b_7_">
											<g id="a_14_">
												<circle class="st3" cx="772.6" cy="269.9" r="3.5"/>
												<path class="st3" d="M862.1,252.1l-22.8,34.7l-7.8,18.3l11.9-15.9L862.1,252.1z"/>
											</g>
											<g transform="rotate(120)">
												<g id="a_15_">
													<circle class="st3" cx="785.4" cy="257.1" r="3.5"/>
													<path class="st3" d="M876.4,263.1l-31,27.7l-12.3,15.6l15.6-12.3L876.4,263.1z"/>
												</g>
											</g>
										</g>
									</g>
								</g>
								<g>
									<g>
										<g>
											<g id="b_8_">
												<g id="a_16_">
													<circle class="st3" cx="801" cy="248.1" r="3.5"/>
													<path class="st3" d="M887.4,277.4l-37.1,18.7L834.3,308l18.3-7.8L887.4,277.4z"/>
												</g>
												<g transform="rotate(15)">
													<g id="a_17_">
														<circle class="st3" cx="818.5" cy="243.4" r="3.5"/>
														<path class="st3" d="M894.3,294.1l-40.7,8.4l-18.5,7.4l19.7-2.8L894.3,294.1z"/>
													</g>
												</g>
											</g>
											<g id="c_4_">
												<g id="b_9_">
													<g id="a_18_">
														<circle class="st3" cx="836.5" cy="243.4" r="3.5"/>
														<path class="st3" d="M896.6,312l-41.5-2.4l-19.8,2.4l19.8,2.4L896.6,312z"/>
													</g>
													<g transform="rotate(30)">
														<g id="a_19_">
															<circle class="st3" cx="854" cy="248.1" r="3.5"/>
															<path class="st3" d="M894.3,329.9l-39.5-13l-19.7-2.8l18.5,7.4L894.3,329.9z"/>
														</g>
													</g>
												</g>
											</g>
											<g transform="translate(112.5,75)">
												<g id="d_2_">
													<g id="b_10_">
														<g id="a_20_">
															<circle class="st3" cx="869.6" cy="257.1" r="3.5"/>
															<path class="st3" d="M887.4,346.6l-34.7-22.8l-18.3-7.8l15.9,11.9L887.4,346.6z"/>
														</g>
														<g transform="rotate(15)">
															<g id="a_21_">
																<circle class="st3" cx="882.4" cy="269.9" r="3.5"/>
																<path class="st3" d="M876.4,360.9l-27.7-31l-15.6-12.3l12.3,15.6L876.4,360.9z"/>
															</g>
														</g>
													</g>
													<g id="c_5_">
														<g id="b_11_">
															<g id="a_22_">
																<circle class="st3" cx="891.4" cy="285.5" r="3.5"/>
																<path class="st3" d="M862.1,371.9l-18.7-37.1l-11.9-15.9l7.8,18.3L862.1,371.9z"/>
															</g>
															<g transform="rotate(-120)">
																<g id="a_23_">
																	<circle class="st3" cx="896.1" cy="303" r="3.5"/>
																	<path class="st3" d="M845.4,378.8l-8.4-40.7l-7.4-18.5l2.8,19.7L845.4,378.8z"/>
																</g>
															</g>
														</g>
													</g>
												</g>
											</g>
										</g>
									</g>
								</g>
							</g>
						</g>
					</g>
				</g>
			</g>
		</g>
	</g>
</g>
</svg>
