<svg width="460" height="365" viewBox="0 0 460 365" fill="none" xmlns="http://www.w3.org/2000/svg">
<path d="M67.1792 327.996C156.746 376.825 301.966 376.825 391.533 327.996C481.1 279.167 481.1 200.109 391.533 151.326C301.966 102.542 156.746 102.496 67.1792 151.326C-22.3879 200.155 -22.3879 279.201 67.1792 327.996Z" fill="#F5F5F5"/>
<path d="M116.653 103.575L138.239 90.5846L116.653 77.5938L94.8711 90.5846L116.653 103.575Z" stroke="#EBEBEB" stroke-width="1.08419" stroke-linecap="round" stroke-linejoin="round"/>
<path d="M99.8906 90.5946L116.663 40.0508V100.69L99.8906 90.5946Z" fill="#E0E0E0"/>
<path d="M116.664 100.69L133.425 90.5946L116.664 40.0508V100.69Z" fill="#E6E6E6"/>
<path d="M90.2741 119.427L111.86 106.436L90.2741 93.4453L68.4922 106.436L90.2741 119.427Z" stroke="#EBEBEB" stroke-width="1.08419" stroke-linecap="round" stroke-linejoin="round"/>
<path d="M73.5117 106.447L90.2729 31.3867V116.543L73.5117 106.447Z" fill="#E0E0E0"/>
<path d="M90.2734 116.543L107.035 106.447L90.2734 31.3867V116.543Z" fill="#E6E6E6"/>
<path d="M63.8982 135.28L85.4841 122.29L63.8982 109.299L42.1055 122.29L63.8982 135.28Z" stroke="#EBEBEB" stroke-width="1.08419" stroke-linecap="round" stroke-linejoin="round"/>
<path d="M47.1367 122.301L63.8979 77.5938V132.396L47.1367 122.301Z" fill="#E0E0E0"/>
<path d="M63.8945 132.396L80.6557 122.301L63.8945 77.5938V132.396Z" fill="#E6E6E6"/>
<path d="M37.5193 151.134L59.1052 138.143L37.5193 125.152L15.7266 138.143L37.5193 151.134Z" stroke="#EBEBEB" stroke-width="1.08419" stroke-linecap="round" stroke-linejoin="round"/>
<path d="M20.7461 138.153L37.5181 62.252V148.248L20.7461 138.153Z" fill="#E0E0E0"/>
<path d="M37.5195 148.248L54.2807 138.153L37.5195 62.252V148.248Z" fill="#E6E6E6"/>
<path d="M325.203 86.3047L440.32 155.597" stroke="#EBEBEB" stroke-width="1.08419" stroke-miterlimit="10" stroke-linecap="round"/>
<path d="M440.32 148.249C440.18 139.551 439.595 130.867 438.566 122.233C437.477 112.854 435.299 97.024 426.641 91.8004C417.982 86.5768 414.715 96.0247 413.463 100.669C411.829 106.699 403.345 102.884 402.169 92.9473C400.993 83.0112 400.219 51.3517 390.047 45.2538C379.875 39.1558 376.597 53.8613 375.442 57.972C373.166 66.0459 366.49 63.8202 364.312 58.4717C362.134 53.1232 356.187 51.8173 353.944 59.3461C351.7 66.8748 350.317 75.5165 343.053 71.0764C336.671 67.1814 339.6 60.0842 333.382 56.7116C328.459 54.0544 326.172 66.7272 326.172 79.5477L440.32 148.249Z" fill="#E0E0E0"/>
<path d="M431.957 82.1694C431.957 83.5548 430.759 83.9523 429.3 83.0779L420.587 77.8089C419.871 77.3856 419.258 76.7953 418.797 76.0841C418.336 75.3729 418.039 74.5602 417.93 73.7095C417.93 72.3355 419.128 71.9267 420.587 72.8124L429.3 78.0814C430.016 78.5022 430.628 79.0904 431.089 79.7997C431.551 80.509 431.848 81.3202 431.957 82.1694V82.1694Z" fill="#E6E6E6"/>
<path d="M396.192 37.6226C396.192 39.0079 395.004 39.4054 393.534 38.531L384.821 33.262C384.104 32.8408 383.49 32.251 383.029 31.5395C382.567 30.8279 382.271 30.0141 382.164 29.1626C382.164 27.7886 383.351 27.3798 384.821 28.2655L393.534 33.5345C394.251 33.9539 394.865 34.5417 395.326 35.2513C395.787 35.9609 396.084 36.7728 396.192 37.6226V37.6226Z" fill="#E6E6E6"/>
<path d="M367.864 45.8218C367.864 47.2072 366.677 47.6046 365.218 46.7302L356.505 41.4612C355.787 41.04 355.173 40.4502 354.712 39.7387C354.251 39.0271 353.955 38.2134 353.848 37.3618C353.848 35.9878 355.035 35.579 356.505 36.4647L365.218 41.7338C365.932 42.1552 366.543 42.7437 367.002 43.4531C367.462 44.1625 367.757 44.9733 367.864 45.8218V45.8218Z" fill="#E6E6E6"/>
<path d="M341.005 48.5347C341.005 49.9201 339.818 50.3175 338.348 49.4318L329.635 44.1741C328.92 43.7502 328.309 43.1595 327.85 42.4483C327.391 41.7371 327.096 40.9247 326.988 40.0747C326.988 38.7007 328.175 38.2919 329.635 39.1776L338.348 44.4353C339.064 44.8579 339.677 45.448 340.138 46.1593C340.599 46.8706 340.896 47.6837 341.005 48.5347V48.5347Z" fill="#E6E6E6"/>
<path d="M320.41 76.072V1" stroke="#EBEBEB" stroke-width="1.08419" stroke-miterlimit="10" stroke-linecap="round"/>
<path d="M308.466 142.515C307.006 137.245 304.396 132.398 300.842 128.354C296.641 123.578 291.728 119.54 286.292 116.397C279.98 112.669 273.268 109.73 266.296 107.642C258.615 105.33 250.736 103.809 242.771 103.099C234.544 102.316 226.265 102.316 218.038 103.099C210.077 103.809 202.201 105.33 194.525 107.642C187.548 109.728 180.833 112.667 174.518 116.397C169.082 119.567 164.172 123.632 159.978 128.434C156.427 132.48 153.818 137.326 152.355 142.594C151.054 147.468 151.054 152.619 152.355 157.493C153.807 162.763 156.417 167.608 159.978 171.642C164.175 176.448 169.088 180.517 174.529 183.69C180.836 187.417 187.544 190.352 194.514 192.434C202.194 194.756 210.072 196.292 218.038 197.022C226.266 197.794 234.544 197.794 242.771 197.022C250.741 196.289 258.623 194.749 266.307 192.423C273.276 190.341 279.984 187.406 286.292 183.679V183.679C291.734 180.508 296.648 176.44 300.842 171.631C304.398 167.593 307.008 162.749 308.466 157.481C309.768 152.585 309.768 147.411 308.466 142.515Z" fill="#37474F"/>
<path d="M151.375 142.537H309.435V150.94L151.375 150.475V142.537Z" fill="#37474F"/>
<path d="M218.037 95.5703L230.387 142.514L194.523 100.158C202.199 97.8312 210.074 96.2946 218.037 95.5703V95.5703Z" fill="#455A64"/>
<path d="M242.771 95.5702L230.421 142.514L218.07 95.5475C226.287 94.7735 234.555 94.7811 242.771 95.5702V95.5702Z" fill="#455A64"/>
<path d="M266.297 100.157L230.422 142.514L242.772 95.5469C250.739 96.2786 258.618 97.8228 266.297 100.157Z" fill="#455A64"/>
<path d="M300.829 120.938C304.381 124.987 306.99 129.837 308.452 135.109L230.43 142.513L300.829 120.938Z" fill="#455A64"/>
<path d="M308.463 135.121C309.754 139.992 309.754 145.137 308.463 150.008L230.43 142.514L308.463 135.121Z" fill="#455A64"/>
<path d="M308.463 150.009C307.004 155.279 304.394 160.126 300.84 164.169L230.43 142.594L308.463 150.009Z" fill="#455A64"/>
<path d="M300.842 164.169C296.647 168.974 291.733 173.039 286.292 176.206L230.41 142.514L300.842 164.169Z" fill="#455A64"/>
<path d="M230.421 142.571L266.307 184.962C258.623 187.274 250.74 188.795 242.771 189.504L230.41 142.537L230.421 142.571Z" fill="#455A64"/>
<path d="M230.411 142.582L242.772 189.549C234.545 190.332 226.266 190.332 218.039 189.549L230.411 142.582Z" fill="#455A64"/>
<path d="M230.388 142.57L218.016 189.537C210.047 188.829 202.164 187.307 194.48 184.995L230.388 142.57Z" fill="#455A64"/>
<path d="M230.39 142.57L194.45 184.961C187.482 182.87 180.774 179.932 174.465 176.206L230.39 142.57Z" fill="#455A64"/>
<path d="M230.377 142.514L159.967 164.089C156.408 160.049 153.798 155.201 152.344 149.929L230.377 142.514Z" fill="#455A64"/>
<path d="M230.378 142.514L152.355 150.008C151.054 145.139 151.054 139.991 152.355 135.121L230.378 142.514Z" fill="#455A64"/>
<path d="M230.378 142.514L152.355 135.076C153.821 129.805 156.43 124.956 159.979 120.904L230.378 142.514Z" fill="#455A64"/>
<path d="M174.516 108.924L230.376 142.514L159.977 120.938C164.172 116.144 169.081 112.087 174.516 108.924V108.924Z" fill="#455A64"/>
<path d="M286.292 108.924L230.422 142.514L266.297 100.135C273.272 102.229 279.984 105.18 286.292 108.924V108.924Z" fill="#455A64"/>
<path d="M286.289 108.924C291.726 112.084 296.636 116.141 300.829 120.938L230.43 142.514L286.289 108.924Z" fill="#455A64"/>
<path d="M230.388 142.514L174.496 176.16C169.056 172.991 164.143 168.926 159.945 164.123L230.355 142.548L230.388 142.514Z" fill="#455A64"/>
<path d="M194.526 100.156L230.39 142.513L174.52 108.877C180.834 105.155 187.55 102.227 194.526 100.156V100.156Z" fill="#455A64"/>
<path d="M230.422 142.57L286.292 176.206C279.983 179.932 273.276 182.87 266.308 184.961L230.422 142.57Z" fill="#455A64"/>
<path d="M182.609 95.1389L226.99 121.847L224.812 84.0898C208.486 84.8166 194.622 88.4504 182.609 95.1389Z" fill="#263238"/>
<path opacity="0.2" d="M182.609 95.1389L226.99 121.847L224.812 84.0898C208.486 84.8166 194.622 88.4504 182.609 95.1389Z" fill="white"/>
<path d="M226.99 121.847V136.428L182.609 109.708V95.1387L226.99 121.847Z" fill="#263238"/>
<path opacity="0.1" d="M226.99 121.847V136.428L182.609 109.708V95.1387L226.99 121.847Z" fill="black"/>
<path d="M284.527 98.8867L233.59 122.847V137.416L284.527 113.456V98.8867Z" fill="#263238"/>
<path opacity="0.3" d="M284.527 98.8867L233.59 122.847V137.416L284.527 113.456V98.8867Z" fill="black"/>
<path d="M284.527 98.8858C270.816 89.154 252.53 84.0213 231.336 83.9531L232.697 107.561L233.59 122.846L284.527 98.8858Z" fill="#263238"/>
<path opacity="0.1" d="M284.527 98.8858C270.816 89.154 252.53 84.0213 231.336 83.9531L232.697 107.561L233.59 122.846L284.527 98.8858Z" fill="black"/>
<path d="M231.324 83.9531V98.5224L233.59 137.415V122.846L231.324 83.9531Z" fill="#263238"/>
<path d="M243.946 150.907L269.987 177.025C271.446 176.446 272.796 175.889 274.343 175.117C292.28 166.691 301.657 154.064 301.647 141.323V126.901C299.675 121.416 294.252 121.428 288.577 116.602L235.397 141.584L234.863 141.834L243.946 150.907Z" fill="#263238"/>
<path opacity="0.6" d="M243.946 150.907L269.987 177.025C271.446 176.446 272.796 175.889 274.343 175.117C292.28 166.691 301.657 154.064 301.647 141.323V126.901C299.675 121.416 294.252 121.428 288.577 116.602L235.397 141.584L234.863 141.834L243.946 150.907Z" fill="white"/>
<path d="M243.948 136.337L269.988 162.455C271.448 161.876 272.798 161.319 274.345 160.536C304.371 146.398 310.383 120.507 288.601 101.986L235.42 126.969L234.887 127.219L243.948 136.337Z" fill="#263238"/>
<path opacity="0.8" d="M243.948 136.337L269.988 162.455C271.448 161.876 272.798 161.319 274.345 160.536C304.371 146.398 310.383 120.507 288.601 101.986L235.42 126.969L234.887 127.219L243.948 136.337Z" fill="white"/>
<path d="M269.944 177.001V162.42L234.832 127.252V141.821L269.944 177.001Z" fill="#263238"/>
<path opacity="0.6" d="M269.944 177.001V162.42L234.832 127.252V141.821L269.944 177.001Z" fill="white"/>
<path d="M177.991 112.488C170.509 117.405 162.2 120.505 159.172 126.478V141.059C159.172 148.656 162.559 156.355 169.584 163.396C179.385 173.195 194.905 180.122 213.343 182.882C230.407 185.508 247.816 184.186 264.335 179.009V164.44L241.409 156.037L227.948 142.513L177.991 112.488Z" fill="#263238"/>
<path opacity="0.6" d="M177.991 112.488C170.509 117.405 162.2 120.505 159.172 126.478V141.059C159.172 148.656 162.559 156.355 169.584 163.396C179.385 173.195 194.905 180.122 213.343 182.882C230.407 185.508 247.816 184.186 264.335 179.009V164.44L241.409 156.037L227.948 142.513L177.991 112.488Z" fill="black"/>
<path d="M177.992 97.9219C156.493 112.026 153.03 132.239 169.584 148.818C179.386 158.629 194.906 165.545 213.344 168.315C230.408 170.936 247.816 169.614 264.335 164.443L241.41 141.471L227.949 127.992L177.992 97.9219Z" fill="#263238"/>
<path opacity="0.3" d="M177.992 97.9219C156.493 112.026 153.03 132.239 169.584 148.818C179.386 158.629 194.906 165.545 213.344 168.315C230.408 170.936 247.816 169.614 264.335 164.443L241.41 141.471L227.949 127.992L177.992 97.9219Z" fill="black"/>
<path d="M427.451 256.809C425.991 251.539 423.382 246.693 419.827 242.649C415.635 237.845 410.725 233.78 405.288 230.612C398.976 226.884 392.264 223.945 385.292 221.856C377.612 219.545 369.732 218.024 361.767 217.314C353.54 216.531 345.261 216.531 337.034 217.314C329.073 218.025 321.198 219.546 313.521 221.856C306.548 223.945 299.837 226.884 293.525 230.612C288.083 233.779 283.17 237.844 278.975 242.649C275.423 246.695 272.814 251.541 271.351 256.809C270.05 261.683 270.05 266.834 271.351 271.708C272.803 276.978 275.413 281.822 278.975 285.857C283.171 290.663 288.085 294.732 293.525 297.905C299.834 301.628 306.542 304.563 313.51 306.649C321.195 308.955 329.077 310.476 337.045 311.191C345.273 311.963 353.551 311.963 361.778 311.191C369.746 310.477 377.629 308.956 385.314 306.649C392.285 304.568 398.994 301.629 405.299 297.894V297.894C410.744 294.728 415.661 290.663 419.86 285.857C423.413 281.817 426.023 276.974 427.483 271.708C428.769 266.83 428.758 261.68 427.451 256.809Z" fill="#37474F"/>
<path d="M270.355 256.797H428.416V265.2L270.355 264.734V256.797Z" fill="#37474F"/>
<path d="M337.021 209.83L349.383 256.797L313.508 214.418C321.183 212.092 329.059 210.555 337.021 209.83V209.83Z" fill="#455A64"/>
<path d="M361.755 209.831L349.404 256.798L337.043 209.831C345.263 209.049 353.534 209.049 361.755 209.831Z" fill="#455A64"/>
<path d="M385.277 214.418L349.402 256.797L361.753 209.83C369.719 210.554 377.598 212.091 385.277 214.418V214.418Z" fill="#455A64"/>
<path d="M419.813 235.211C423.368 239.259 425.977 244.109 427.437 249.383L349.414 256.821L419.813 235.211Z" fill="#455A64"/>
<path d="M427.448 249.383C428.744 254.253 428.744 259.4 427.448 264.27L349.426 256.821L427.448 249.383Z" fill="#455A64"/>
<path d="M427.448 264.269C425.985 269.537 423.376 274.383 419.824 278.429L349.414 256.854L427.448 264.269Z" fill="#455A64"/>
<path d="M419.833 278.43C415.629 283.23 410.713 287.294 405.272 290.467L349.391 256.82L419.833 278.43Z" fill="#455A64"/>
<path d="M349.401 256.831L385.287 299.221C377.602 301.528 369.72 303.05 361.752 303.764L349.391 256.797L349.401 256.831Z" fill="#455A64"/>
<path d="M349.392 256.844L361.753 303.765C353.525 304.543 345.247 304.543 337.02 303.765L349.392 256.844Z" fill="#455A64"/>
<path d="M349.381 256.832L337.02 303.765C329.052 303.05 321.17 301.529 313.484 299.223L349.381 256.832Z" fill="#455A64"/>
<path d="M349.382 256.832L313.442 299.223C306.475 297.128 299.768 294.189 293.457 290.467L349.382 256.832Z" fill="#455A64"/>
<path d="M349.362 256.82L278.952 278.396C275.392 274.356 272.782 269.508 271.328 264.236L349.362 256.82Z" fill="#455A64"/>
<path d="M349.362 256.821L271.339 264.27C270.038 259.4 270.038 254.252 271.339 249.383L349.362 256.821Z" fill="#455A64"/>
<path d="M349.363 256.809L271.34 249.371C272.803 244.099 275.412 239.25 278.964 235.199L349.363 256.809Z" fill="#455A64"/>
<path d="M293.511 223.139L349.36 256.763L278.961 235.187C283.155 230.378 288.069 226.309 293.511 223.139V223.139Z" fill="#455A64"/>
<path d="M405.273 223.138L349.402 256.762L385.277 214.383C392.251 216.467 398.963 219.405 405.273 223.138V223.138Z" fill="#455A64"/>
<path d="M405.275 223.139C410.712 226.302 415.622 230.363 419.814 235.164L349.426 256.74L405.275 223.139Z" fill="#455A64"/>
<path d="M349.381 256.809L293.499 290.467C288.062 287.293 283.149 283.229 278.949 278.43L349.359 256.854L349.381 256.809Z" fill="#455A64"/>
<path d="M313.507 214.418L349.382 256.797L293.512 223.139C299.823 219.418 306.535 216.491 313.507 214.418V214.418Z" fill="#455A64"/>
<path d="M349.402 256.832L405.273 290.467C398.964 294.193 392.256 297.132 385.288 299.223L349.402 256.832Z" fill="#455A64"/>
<path d="M279.77 238.367V261.964C279.196 259.808 278.903 257.581 278.898 255.344V238.367H279.77Z" fill="#263238"/>
<path opacity="0.3" d="M279.77 238.367V261.964C279.196 259.808 278.903 257.581 278.898 255.344V238.367H279.77Z" fill="black"/>
<path d="M349.361 238.389L279.768 245.021C278.614 240.678 278.614 236.089 279.768 231.746L349.361 238.389Z" fill="#263238"/>
<path d="M349.359 238.368L279.766 231.725C281.074 227.023 283.403 222.698 286.572 219.086L349.359 238.368Z" fill="#263238"/>
<path d="M299.545 208.377L349.36 238.367L286.574 219.063C290.319 214.797 294.699 211.189 299.545 208.377V208.377Z" fill="#263238"/>
<path d="M317.382 200.564L349.38 238.356L299.543 208.377C305.173 205.047 311.161 202.425 317.382 200.564V200.564Z" fill="#263238"/>
<path d="M338.363 196.477L349.384 238.356L317.387 200.565C324.233 198.488 331.259 197.119 338.363 196.477V196.477Z" fill="#263238"/>
<path d="M360.481 196.475L349.404 238.354L338.383 196.475C345.733 195.769 353.13 195.769 360.481 196.475V196.475Z" fill="#263238"/>
<path d="M381.4 200.565L349.402 238.356L360.478 196.477C367.564 197.122 374.571 198.492 381.4 200.565V200.565Z" fill="#263238"/>
<g opacity="0.2">
<path d="M349.361 238.389L279.768 245.021C278.614 240.678 278.614 236.089 279.768 231.746L349.361 238.389Z" fill="white"/>
<path d="M349.363 238.366L279.77 231.723C281.077 227.021 283.407 222.696 286.576 219.084L349.363 238.366Z" fill="white"/>
<path d="M299.545 208.375L349.36 238.365L286.574 219.061C290.319 214.796 294.699 211.187 299.545 208.375V208.375Z" fill="white"/>
<path d="M317.386 200.562L349.384 238.354L299.547 208.375C305.176 205.045 311.165 202.423 317.386 200.562V200.562Z" fill="white"/>
<path d="M338.363 196.475L349.384 238.354L317.387 200.563C324.233 198.486 331.259 197.117 338.363 196.475V196.475Z" fill="white"/>
<path d="M360.481 196.475L349.404 238.354L338.383 196.475C345.733 195.769 353.13 195.769 360.481 196.475V196.475Z" fill="white"/>
<path d="M381.404 200.563L349.406 238.354L360.482 196.475C367.568 197.12 374.575 198.49 381.404 200.563V200.563Z" fill="white"/>
</g>
<path d="M408.4 249.7L397.955 259.921L390.016 267.745L382.446 275.171L381.434 276.159V293.113C387.654 291.254 393.642 288.636 399.273 285.312C404.125 282.475 408.508 278.844 412.255 274.558C415.424 270.957 417.746 266.639 419.04 261.942C419.617 259.786 419.914 257.559 419.922 255.321V238.379L408.4 249.7Z" fill="#263238"/>
<path opacity="0.3" d="M408.4 249.7L397.955 259.921L390.016 267.745L382.446 275.171L381.434 276.159V293.113C387.654 291.254 393.642 288.636 399.273 285.312C404.125 282.475 408.508 278.844 412.255 274.558C415.424 270.957 417.746 266.639 419.04 261.942C419.617 259.786 419.914 257.559 419.922 255.321V238.379L408.4 249.7Z" fill="black"/>
<path d="M412.211 219.107C415.377 222.723 417.705 227.046 419.018 231.746L349.414 238.389L412.211 219.107Z" fill="#263238"/>
<path d="M419.889 238.401C419.881 240.642 419.584 242.873 419.007 245.032L397.922 243.011L349.414 238.378L408.367 232.7L419.007 231.689C419.59 233.875 419.887 236.132 419.889 238.401Z" fill="#263238"/>
<path d="M419.007 245.032C417.711 249.728 415.388 254.046 412.222 257.648L389.983 250.835L349.414 238.344L397.922 242.977L419.007 245.032Z" fill="#263238"/>
<path d="M412.223 257.648C408.476 261.934 404.093 265.565 399.241 268.402L382.414 258.25L349.426 238.4L389.995 250.892L412.223 257.648Z" fill="#263238"/>
<path d="M399.239 208.376L349.402 238.377L381.4 200.586C387.619 202.443 393.607 205.058 399.239 208.376V208.376Z" fill="#263238"/>
<path d="M399.24 208.377C404.087 211.206 408.467 214.829 412.211 219.108L349.414 238.413L399.24 208.377Z" fill="#263238"/>
<path d="M399.241 268.402C393.61 271.722 387.622 274.337 381.402 276.192L349.426 238.4L382.414 258.25L399.241 268.402Z" fill="#263238"/>
<g opacity="0.2">
<path d="M412.215 219.107C415.381 222.723 417.709 227.046 419.022 231.746L349.418 238.389L412.215 219.107Z" fill="white"/>
<path d="M419.893 238.399C419.884 240.64 419.588 242.871 419.011 245.03L397.926 243.009L349.418 238.376L408.371 232.698L419.011 231.688C419.594 233.873 419.891 236.13 419.893 238.399Z" fill="white"/>
<path d="M419.011 245.032C417.715 249.728 415.392 254.046 412.226 257.648L389.987 250.835L349.418 238.344L397.926 242.977L419.011 245.032Z" fill="white"/>
<path d="M412.223 257.648C408.476 261.934 404.093 265.565 399.241 268.402L382.414 258.25L349.426 238.4L389.995 250.892L412.223 257.648Z" fill="white"/>
<path d="M399.243 208.376L349.406 238.377L381.404 200.586C387.623 202.443 393.611 205.058 399.243 208.376V208.376Z" fill="white"/>
<path d="M399.244 208.375C404.091 211.204 408.471 214.827 412.215 219.106L349.418 238.411L399.244 208.375Z" fill="white"/>
<path d="M399.241 268.402C393.61 271.722 387.622 274.337 381.402 276.192L349.426 238.4L382.414 258.25L399.241 268.402Z" fill="white"/>
</g>
<path d="M381.413 276.204V293.158L349.383 255.321V238.355L381.413 276.204Z" fill="#263238"/>
<path d="M349.38 255.321L279.766 261.987V245.021L349.38 238.355V255.321Z" fill="#263238"/>
<path opacity="0.1" d="M349.38 255.321L279.766 261.987V245.021L349.38 238.355V255.321Z" fill="black"/>
<path d="M189.492 256.809C188.032 251.539 185.423 246.693 181.868 242.649C177.675 237.847 172.765 233.782 167.329 230.612C161.014 226.882 154.299 223.943 147.322 221.856C139.646 219.545 131.77 218.024 123.809 217.314C115.582 216.531 107.303 216.531 99.0755 217.314C91.1107 218.025 83.2317 219.546 75.5511 221.856C68.5713 223.943 61.8523 226.882 55.5335 230.612C50.0959 233.78 45.1859 237.845 40.9941 242.649C37.4396 246.693 34.8304 251.539 33.3705 256.809C32.0796 261.684 32.0796 266.833 33.3705 271.708C34.8279 276.975 37.4375 281.819 40.9941 285.857C45.1851 290.665 50.0951 294.734 55.5335 297.905C61.8407 301.632 68.5491 304.567 75.5184 306.649C83.2035 308.956 91.0858 310.477 99.0537 311.191C107.282 311.963 115.559 311.963 123.787 311.191C131.755 310.477 139.637 308.956 147.322 306.649C154.294 304.568 161.003 301.629 167.307 297.894V297.894C172.753 294.729 177.671 290.664 181.868 285.857C185.425 281.819 188.035 276.975 189.492 271.708C190.783 266.833 190.783 261.684 189.492 256.809V256.809Z" fill="#37474F"/>
<path d="M32.3906 256.797H190.451V265.2L32.3906 264.734V256.797Z" fill="#37474F"/>
<path d="M99.0986 209.83L111.449 256.797L75.5742 214.418C83.2534 212.092 91.1324 210.555 99.0986 209.83Z" fill="#455A64"/>
<path d="M123.787 209.83L111.437 256.797L99.0977 209.83C107.311 209.049 115.575 209.049 123.787 209.83Z" fill="#455A64"/>
<path d="M147.301 214.418L111.438 256.797L123.788 209.83C131.751 210.554 139.626 212.091 147.301 214.418V214.418Z" fill="#455A64"/>
<path d="M181.867 235.211C185.422 239.259 188.031 244.109 189.491 249.383L111.457 256.821L181.867 235.211Z" fill="#455A64"/>
<path d="M189.491 249.383C190.781 254.254 190.781 259.399 189.491 264.27L111.457 256.821L189.491 249.383Z" fill="#455A64"/>
<path d="M189.491 264.269C188.031 269.539 185.422 274.385 181.867 278.429L111.457 256.854L189.491 264.269Z" fill="#455A64"/>
<path d="M181.868 278.43C177.668 283.229 172.756 287.294 167.318 290.467L111.426 256.82L181.868 278.43Z" fill="#455A64"/>
<path d="M111.436 256.831L147.321 299.221C139.636 301.528 131.754 303.05 123.786 303.764L111.414 256.797L111.436 256.831Z" fill="#455A64"/>
<path d="M111.415 256.844L123.787 303.765C115.574 304.54 107.311 304.54 99.0977 303.765L111.415 256.844Z" fill="#455A64"/>
<path d="M111.405 256.832L99.0978 303.765C91.1299 303.051 83.2476 301.53 75.5625 299.223L111.405 256.832Z" fill="#455A64"/>
<path d="M111.406 256.832L75.4656 299.223C68.5163 297.128 61.827 294.189 55.5352 290.467L111.406 256.832Z" fill="#455A64"/>
<path d="M111.393 256.82L40.983 278.396C37.4282 274.352 34.8189 269.506 33.3594 264.236L111.393 256.82Z" fill="#455A64"/>
<path d="M111.392 256.821L33.3585 264.27C32.068 259.399 32.068 254.254 33.3585 249.383L111.392 256.821Z" fill="#455A64"/>
<path d="M111.393 256.809L33.3594 249.371C34.8192 244.098 37.4283 239.247 40.983 235.199L111.393 256.809Z" fill="#455A64"/>
<path d="M55.5355 223.139L111.395 256.763L40.9961 235.187C45.1863 230.378 50.0964 226.309 55.5355 223.139V223.139Z" fill="#455A64"/>
<path d="M167.308 223.138L111.438 256.762L147.301 214.383C154.279 216.464 160.995 219.403 167.308 223.138V223.138Z" fill="#455A64"/>
<path d="M167.307 223.139C172.753 226.317 177.67 230.393 181.868 235.21L111.469 256.785L167.307 223.139Z" fill="#455A64"/>
<path d="M111.405 256.809L55.5347 290.467C50.0953 287.296 45.1821 283.232 40.9844 278.43L111.394 256.854L111.405 256.809Z" fill="#455A64"/>
<path d="M75.5309 214.418L111.406 256.797L55.5352 223.139C61.8465 219.418 68.5585 216.491 75.5309 214.418V214.418Z" fill="#455A64"/>
<path d="M111.438 256.832L167.308 290.467C160.999 294.193 154.291 297.132 147.323 299.223L111.438 256.832Z" fill="#455A64"/>
<path d="M132.436 227.681L141.443 217.03C141.443 204.538 126.806 204.232 120.337 203.63C113.867 203.028 102.77 199.156 102.77 213.373L105.863 225.138C114.794 224.539 123.759 225.397 132.436 227.681V227.681Z" fill="#263238"/>
<path opacity="0.6" d="M132.436 227.681L141.443 217.03C141.443 204.538 126.806 204.232 120.337 203.63C113.867 203.028 102.77 199.156 102.77 213.373L105.863 225.138C114.794 224.539 123.759 225.397 132.436 227.681V227.681Z" fill="white"/>
<path d="M132.436 210.954L141.443 200.313C128.832 196.891 115.766 195.656 102.77 196.657L105.863 208.376C114.795 207.789 123.761 208.658 132.436 210.954V210.954Z" fill="#263238"/>
<path opacity="0.8" d="M132.436 210.954L141.443 200.313C128.832 196.891 115.766 195.656 102.77 196.657L105.863 208.376C114.795 207.789 123.761 208.658 132.436 210.954V210.954Z" fill="white"/>
<path d="M105.863 208.421V225.159L102.77 213.394V196.656L105.863 208.421Z" fill="#263238"/>
<path d="M141.44 200.312L132.434 210.953V227.702L141.44 217.051V200.312Z" fill="#263238"/>
<g opacity="0.6">
<path d="M105.859 208.421V225.159L102.766 213.394V196.656L105.859 208.421Z" fill="white"/>
<path d="M141.44 200.312L132.434 210.953V227.702L141.44 217.051V200.312Z" fill="white"/>
</g>
<path d="M136.836 212.306V229.044C140.594 230.309 144.221 231.964 147.662 233.984C150.664 235.762 153.423 237.954 155.862 240.502L173.528 235.086C170.015 231.347 166.015 228.144 161.645 225.57C156.821 222.685 151.659 210.989 136.836 212.306Z" fill="#263238"/>
<path opacity="0.6" d="M136.836 212.306V229.044C140.594 230.309 144.221 231.964 147.662 233.984C150.664 235.762 153.423 237.954 155.862 240.502L173.528 235.086C170.015 231.347 166.015 228.144 161.645 225.57C156.821 222.685 151.659 210.989 136.836 212.306Z" fill="black"/>
<path d="M145.843 201.676L136.836 212.305C140.597 213.56 144.225 215.215 147.662 217.244C150.664 219.022 153.423 221.215 155.862 223.762L173.528 218.346C170.021 214.601 166.02 211.397 161.645 208.83C156.638 205.863 151.341 203.464 145.843 201.676V201.676Z" fill="#263238"/>
<path opacity="0.3" d="M145.843 201.676L136.836 212.305C140.597 213.56 144.225 215.215 147.662 217.244C150.664 219.022 153.423 221.215 155.862 223.762L173.528 218.346C170.021 214.601 166.02 211.397 161.645 208.83C156.638 205.863 151.341 203.464 145.843 201.676V201.676Z" fill="black"/>
<path d="M155.859 223.764L173.524 218.336V235.085L155.859 240.502V223.764Z" fill="#263238"/>
<path opacity="0.6" d="M155.859 223.764L173.524 218.336V235.085L155.859 240.502V223.764Z" fill="black"/>
<path d="M182.389 238.616H176.421C176.203 238.321 176.018 238.026 175.8 237.731L158.113 226.375V243.125C161.882 248.178 163.308 253.697 162.328 259.113L181.866 261.01C182.197 259.321 182.361 257.601 182.357 255.877V255.877L182.389 238.616Z" fill="#263238"/>
<path opacity="0.6" d="M182.389 238.616H176.421C176.203 238.321 176.018 238.026 175.8 237.731L158.113 226.375V243.125C161.882 248.178 163.308 253.697 162.328 259.113L181.866 261.01C182.197 259.321 182.361 257.601 182.357 255.877V255.877L182.389 238.616Z" fill="black"/>
<path d="M162.32 242.443L181.87 244.271C183.46 236.402 181.445 228.305 175.792 220.992L158.105 226.409C161.874 231.462 163.355 236.992 162.32 242.443Z" fill="#263238"/>
<path opacity="0.3" d="M162.32 242.443L181.87 244.271C183.46 236.402 181.445 228.305 175.792 220.992L158.105 226.409C161.874 231.462 163.355 236.992 162.32 242.443Z" fill="black"/>
<path d="M181.87 244.272V261.022L162.32 259.148V242.41L181.87 244.272Z" fill="#263238"/>
<path opacity="0.6" d="M181.87 244.272V261.022L162.32 259.148V242.41L181.87 244.272Z" fill="black"/>
<path d="M100.981 225.636V208.886C90.0905 203.651 69.8116 208.966 63.0156 224.557L76.9996 232.983C84.5108 229.066 92.632 226.578 100.981 225.636Z" fill="#263238"/>
<path opacity="0.3" d="M100.981 225.636V208.886C90.0905 203.651 69.8116 208.966 63.0156 224.557L76.9996 232.983C84.5108 229.066 92.632 226.578 100.981 225.636Z" fill="black"/>
<path d="M100.982 208.888L97.8784 197.09C84.7112 198.634 72.6549 202.416 63.0273 207.821L77.0113 216.235C84.5191 212.32 92.6365 209.832 100.982 208.888Z" fill="#263238"/>
<path opacity="0.1" d="M100.982 208.888L97.8784 197.09C84.7112 198.634 72.6549 202.416 63.0273 207.821L77.0113 216.235C84.5191 212.32 92.6365 209.832 100.982 208.888Z" fill="black"/>
<path d="M76.9996 216.235V232.984L63.0156 224.558V207.82L76.9996 216.235Z" fill="#263238"/>
<path d="M62.3758 218.348L59.5006 226.649C50.1017 232.713 44.1661 240.014 41.7266 247.657L61.3303 249.519C63.1273 244.284 67.2223 239.299 73.5608 235.097V218.348H62.3758Z" fill="#263238"/>
<path opacity="0.3" d="M62.3758 218.348L59.5006 226.649C50.1017 232.713 44.1661 240.014 41.7266 247.657L61.3303 249.519C63.1273 244.284 67.2223 239.299 73.5608 235.097V218.348H62.3758Z" fill="black"/>
<path d="M73.5172 218.347L59.5006 209.91C50.1017 215.963 44.1661 223.276 41.7266 230.907L61.3303 232.78C63.0837 227.545 67.1787 222.549 73.5172 218.347Z" fill="#263238"/>
<path opacity="0.1" d="M73.5172 218.347L59.5006 209.91C50.1017 215.963 44.1661 223.276 41.7266 230.907L61.3303 232.78C63.0837 227.545 67.1787 222.549 73.5172 218.347Z" fill="black"/>
<path d="M41.7266 230.906V247.656L61.2867 249.518V232.78L41.7266 230.906Z" fill="#263238"/>
<path d="M60.5103 252.459V235.709L54.6946 235.164L40.4492 239.036V255.763C40.5405 262.409 42.8513 268.814 46.9838 273.875L64.6707 268.459C60.9786 263.405 59.541 257.875 60.5103 252.459Z" fill="#263238"/>
<path opacity="0.3" d="M60.5103 252.459V235.709L54.6946 235.164L40.4492 239.036V255.763C40.5405 262.409 42.8513 268.814 46.9838 273.875L64.6707 268.459C60.9786 263.405 59.541 257.875 60.5103 252.459Z" fill="black"/>
<path d="M47.0508 257.139L64.7377 251.711V268.46L47.0508 273.877V257.139Z" fill="#263238"/>
<path d="M60.5239 235.71L40.9202 233.848C39.3301 241.728 41.345 249.814 46.9973 257.138L64.6842 251.71C60.9813 246.657 59.5437 241.127 60.5239 235.71Z" fill="#263238"/>
<path opacity="0.1" d="M60.5239 235.71L40.9202 233.848C39.3301 241.728 41.345 249.814 46.9973 257.138L64.6842 251.71C60.9813 246.657 59.5437 241.127 60.5239 235.71Z" fill="black"/>
<path d="M81.4422 273.853C73.1542 268.868 69.0156 262.339 69.0156 255.809V239.037H153.823V255.775C153.823 262.316 149.685 268.846 141.397 273.831C124.843 283.824 98.0073 283.824 81.4422 273.853Z" fill="#37474F"/>
<path d="M111.426 264.586C134.842 264.586 153.824 253.157 153.824 239.059C153.824 224.96 134.842 213.531 111.426 213.531C88.0098 213.531 69.0273 224.96 69.0273 239.059C69.0273 253.157 88.0098 264.586 111.426 264.586Z" fill="#455A64"/>
<path d="M77.0003 278.645V276.51L49.3047 259.783V276.51C52.8183 280.252 56.8223 283.455 61.1976 286.026C66.2047 288.993 71.5026 291.391 77.0003 293.18L85.9963 282.551C82.9025 281.501 79.8943 280.195 77.0003 278.645V278.645Z" fill="#263238"/>
<path opacity="0.3" d="M77.0003 278.645V276.51L49.3047 259.783V276.51C52.8183 280.252 56.8223 283.455 61.1976 286.026C66.2047 288.993 71.5026 291.391 77.0003 293.18L85.9963 282.551C82.9025 281.501 79.8943 280.195 77.0003 278.645V278.645Z" fill="black"/>
<path d="M75.1386 260.874C72.1325 259.101 69.3702 256.912 66.9268 254.367L49.2617 259.784C52.7781 263.522 56.7817 266.725 61.1546 269.3C66.1639 272.262 71.4613 274.66 76.9574 276.454L85.9533 265.814C82.1953 264.558 78.5713 262.903 75.1386 260.874V260.874Z" fill="#263238"/>
<path opacity="0.1" d="M75.1386 260.874C72.1325 259.101 69.3702 256.912 66.9268 254.367L49.2617 259.784C52.7781 263.522 56.7817 266.725 61.1546 269.3C66.1639 272.262 71.4613 274.66 76.9574 276.454L85.9533 265.814C82.1953 264.558 78.5713 262.903 75.1386 260.874V260.874Z" fill="black"/>
<path d="M77 293.191V276.453L85.9959 265.812V282.562L77 293.191Z" fill="#263238"/>
<path d="M81.3984 277.805V294.554C94.0101 297.976 107.076 299.212 120.072 298.211V281.473L81.3984 277.805Z" fill="#263238"/>
<path opacity="0.1" d="M81.3984 277.805V294.554C94.0101 297.976 107.076 299.212 120.072 298.211V281.473L81.3984 277.805Z" fill="black"/>
<path d="M90.3857 267.164L81.3789 277.804C93.9909 281.225 107.056 282.464 120.053 281.472L116.981 269.696C108.044 270.301 99.0705 269.446 90.3857 267.164V267.164Z" fill="#263238"/>
<path opacity="0.2" d="M90.3857 267.164L81.3789 277.804C93.9909 281.225 107.056 282.464 120.053 281.472L116.981 269.696C108.044 270.301 99.0705 269.446 90.3857 267.164V267.164Z" fill="white"/>
<path d="M149.328 276.51L163.356 284.959C172.755 278.906 178.69 271.593 181.13 263.951V247.213L161.526 262.089C159.762 267.324 155.667 272.32 149.328 276.51Z" fill="#263238"/>
<path opacity="0.1" d="M149.328 276.51L163.356 284.959C172.755 278.906 178.69 271.593 181.13 263.951V247.213L161.526 262.089C159.762 267.324 155.667 272.32 149.328 276.51Z" fill="black"/>
<path d="M149.328 259.773L163.356 268.222C172.755 262.158 178.69 254.856 181.13 247.214L161.526 245.352C159.762 250.587 155.667 255.572 149.328 259.773Z" fill="#263238"/>
<path opacity="0.2" d="M149.328 259.773L163.356 268.222C172.755 262.158 178.69 254.856 181.13 247.214L161.526 245.352C159.762 250.587 155.667 255.572 149.328 259.773Z" fill="white"/>
<path d="M163.345 268.222V284.96L149.328 276.523V259.773L163.345 268.222Z" fill="#263238"/>
<path opacity="0.3" d="M163.345 268.222V284.96L149.328 276.523V259.773L163.345 268.222Z" fill="black"/>
<path d="M124.963 281.051V285.594C123.929 285.764 122.905 285.912 121.859 286.037L124.963 297.824C137.651 296.347 149.784 292.77 159.814 287.115V270.32L124.963 281.051Z" fill="#263238"/>
<path opacity="0.1" d="M124.963 281.051V285.594C123.929 285.764 122.905 285.912 121.859 286.037L124.963 297.824C137.651 296.347 149.784 292.77 159.814 287.115V270.32L124.963 281.051Z" fill="black"/>
<path d="M121.859 269.242L124.963 281.052C137.651 279.576 149.784 276.01 159.814 270.355L145.798 261.906C138.305 265.83 130.197 268.315 121.859 269.242V269.242Z" fill="#263238"/>
<path opacity="0.2" d="M121.859 269.242L124.963 281.052C137.651 279.576 149.784 276.01 159.814 270.355L145.798 261.906C138.305 265.83 130.197 268.315 121.859 269.242V269.242Z" fill="white"/>
<path d="M124.963 281.018V297.756L121.859 285.992V269.242L124.963 281.018Z" fill="#263238"/>
<path opacity="0.3" d="M124.963 281.018V297.756L121.859 285.992V269.242L124.963 281.018Z" fill="black"/>
<path d="M396.761 169.019C396.722 168.281 396.518 167.562 396.164 166.921C395.811 166.28 395.317 165.735 394.725 165.329L365.232 147.58C364.143 146.899 363.195 147.455 363.195 148.818V178.535C363.232 179.274 363.436 179.994 363.79 180.635C364.144 181.276 364.638 181.821 365.232 182.226L377.582 189.653L381.481 206.107C381.468 206.408 381.57 206.702 381.766 206.925C381.961 207.147 382.232 207.28 382.521 207.294C382.81 207.307 383.092 207.2 383.306 206.997C383.519 206.794 383.646 206.51 383.659 206.209L387.232 195.455L394.779 199.998C395.868 200.679 396.816 200.123 396.816 198.771L396.761 169.019Z" fill="#263238"/>
<path opacity="0.5" d="M396.761 169.019C396.722 168.281 396.518 167.562 396.164 166.921C395.811 166.28 395.317 165.735 394.725 165.329L365.232 147.58C364.143 146.899 363.195 147.455 363.195 148.818V178.535C363.232 179.274 363.436 179.994 363.79 180.635C364.144 181.276 364.638 181.821 365.232 182.226L377.582 189.653L381.481 206.107C381.468 206.408 381.57 206.702 381.766 206.925C381.961 207.147 382.232 207.28 382.521 207.294C382.81 207.307 383.092 207.2 383.306 206.997C383.519 206.794 383.646 206.51 383.659 206.209L387.232 195.455L394.779 199.998C395.868 200.679 396.816 200.123 396.816 198.771L396.761 169.019Z" fill="white"/>
<path d="M374.369 161.116C374.971 161.473 375.528 161.908 376.025 162.411C376.469 162.862 376.867 163.36 377.212 163.898C377.511 164.374 377.756 164.885 377.942 165.42C378.095 165.875 378.194 166.348 378.236 166.828C378.236 167.316 378.29 167.827 378.29 168.361C378.29 168.895 378.29 169.383 378.236 169.837C378.209 170.203 378.109 170.559 377.942 170.882C377.779 171.18 377.52 171.409 377.212 171.529C376.823 171.64 376.413 171.64 376.025 171.529C375.439 171.388 374.879 171.146 374.369 170.814C373.765 170.461 373.205 170.029 372.703 169.531C372.257 169.092 371.862 168.601 371.527 168.066C370.957 167.188 370.602 166.178 370.492 165.125C370.492 164.636 370.492 164.125 370.492 163.592C370.492 163.058 370.492 162.57 370.492 162.127C370.526 161.757 370.629 161.398 370.797 161.071C370.955 160.768 371.215 160.537 371.527 160.423C371.908 160.298 372.313 160.279 372.703 160.367C373.296 160.512 373.861 160.766 374.369 161.116V161.116ZM384.781 168.032C384.892 167.946 385.024 167.895 385.162 167.884C385.36 167.897 385.552 167.964 385.718 168.077L387.275 169.02C387.454 169.125 387.609 169.268 387.733 169.44C387.834 169.585 387.891 169.759 387.896 169.939C387.9 169.977 387.9 170.015 387.896 170.053C387.877 170.095 387.851 170.133 387.82 170.166L374.99 180.046C374.878 180.132 374.747 180.187 374.609 180.205C374.409 180.191 374.217 180.12 374.054 180L372.496 179.069C372.315 178.962 372.159 178.815 372.039 178.638C371.934 178.498 371.873 178.327 371.864 178.149C371.856 178.108 371.856 178.066 371.864 178.025C371.88 177.98 371.906 177.941 371.941 177.911L384.781 168.032ZM375.742 168.032C375.757 167.865 375.757 167.698 375.742 167.532V166.067C375.756 165.89 375.756 165.711 375.742 165.533C375.706 165.134 375.591 164.748 375.404 164.398C375.153 163.973 374.795 163.627 374.369 163.399C373.868 163.092 373.52 163.012 373.28 163.149C373.177 163.235 373.094 163.344 373.035 163.467C372.977 163.591 372.945 163.726 372.943 163.864C372.943 163.966 372.943 164.125 372.943 164.364C372.943 164.602 372.943 164.829 372.943 165.079C372.943 165.329 372.943 165.579 372.943 165.817C372.943 166.056 372.943 166.237 372.943 166.362C372.983 166.76 373.098 167.146 373.28 167.498C373.547 167.93 373.924 168.276 374.369 168.497C374.87 168.804 375.219 168.883 375.404 168.747C375.503 168.665 375.583 168.561 375.639 168.444C375.696 168.326 375.727 168.197 375.731 168.066L375.742 168.032ZM385.609 177.355C386.214 177.712 386.774 178.147 387.275 178.649C387.717 179.1 388.111 179.599 388.451 180.137C388.759 180.608 389.004 181.119 389.181 181.658C389.332 182.114 389.435 182.587 389.486 183.066C389.486 183.555 389.486 184.066 389.486 184.599C389.486 185.133 389.486 185.621 389.486 186.076C389.452 186.442 389.349 186.797 389.181 187.12C389.107 187.273 389.004 187.409 388.878 187.52C388.753 187.631 388.608 187.716 388.451 187.768C388.067 187.885 387.659 187.885 387.275 187.768C386.686 187.626 386.123 187.384 385.609 187.052C385.007 186.699 384.451 186.268 383.953 185.769C383.507 185.328 383.109 184.837 382.766 184.304C382.465 183.83 382.22 183.319 382.037 182.783C381.884 182.327 381.786 181.854 381.743 181.374C381.743 180.875 381.743 180.364 381.743 179.83C381.743 179.296 381.743 178.808 381.743 178.365C381.768 177.995 381.868 177.635 382.037 177.309C382.197 177.008 382.456 176.778 382.766 176.662C383.156 176.562 383.563 176.562 383.953 176.662C384.542 176.801 385.102 177.047 385.609 177.389V177.355ZM386.992 184.304C387.001 184.138 387.001 183.971 386.992 183.805V182.374C386.992 182.147 386.992 181.965 386.992 181.851C386.946 181.455 386.832 181.07 386.654 180.716C386.384 180.287 386.008 179.942 385.565 179.717C385.064 179.41 384.716 179.33 384.531 179.467C384.428 179.553 384.344 179.662 384.286 179.785C384.227 179.909 384.196 180.044 384.193 180.182C384.182 180.348 384.182 180.515 384.193 180.682C384.193 180.909 384.193 181.147 384.193 181.397C384.193 181.647 384.193 181.897 384.193 182.147C384.183 182.324 384.183 182.503 384.193 182.68C384.227 183.08 384.342 183.467 384.531 183.816C384.778 184.244 385.137 184.59 385.565 184.815C386.066 185.122 386.415 185.201 386.654 185.065C386.757 184.976 386.839 184.864 386.898 184.739C386.956 184.614 386.988 184.477 386.992 184.338V184.304Z" fill="#FAFAFA"/>
<path d="M269.171 55.0768C269.132 54.3386 268.927 53.6203 268.573 52.9794C268.22 52.3386 267.727 51.7929 267.135 51.3863L237.642 33.6488C236.553 32.9675 235.605 33.5125 235.605 34.8752V64.5929C235.643 65.3331 235.847 66.0536 236.201 66.6966C236.555 67.3396 237.048 67.887 237.642 68.2948L249.992 75.7214L253.891 92.1416C253.934 92.396 254.059 92.6276 254.245 92.7982C254.43 92.9688 254.667 93.0683 254.914 93.0802C255.161 93.0921 255.405 93.0157 255.605 92.8637C255.806 92.7116 255.95 92.493 256.015 92.2438L259.587 81.49L267.135 86.0323C268.224 86.7136 269.171 86.1685 269.171 84.8058V55.0768Z" fill="#263238"/>
<path opacity="0.5" d="M269.171 55.0768C269.132 54.3386 268.927 53.6203 268.573 52.9794C268.22 52.3386 267.727 51.7929 267.135 51.3863L237.642 33.6488C236.553 32.9675 235.605 33.5125 235.605 34.8752V64.5929C235.643 65.3331 235.847 66.0536 236.201 66.6966C236.555 67.3396 237.048 67.887 237.642 68.2948L249.992 75.7214L253.891 92.1416C253.934 92.396 254.059 92.6276 254.245 92.7982C254.43 92.9688 254.667 93.0683 254.914 93.0802C255.161 93.0921 255.405 93.0157 255.605 92.8637C255.806 92.7116 255.95 92.493 256.015 92.2438L259.587 81.49L267.135 86.0323C268.224 86.7136 269.171 86.1685 269.171 84.8058V55.0768Z" fill="white"/>
<path d="M246.78 47.2187C247.381 47.5757 247.938 48.0107 248.435 48.5133C248.877 48.9669 249.275 49.4652 249.622 50.0009C249.925 50.4743 250.17 50.9855 250.352 51.5225C250.505 51.9774 250.604 52.4504 250.646 52.9306C250.646 53.4189 250.7 53.9299 250.7 54.4636C250.7 54.9973 250.7 55.4856 250.646 55.9398C250.621 56.3096 250.521 56.6697 250.352 56.9959C250.194 57.2959 249.933 57.5229 249.622 57.6318C249.239 57.7622 248.828 57.7819 248.435 57.6886C247.847 57.5471 247.287 57.3013 246.78 56.9619C246.172 56.6125 245.612 56.181 245.113 55.6787C244.667 55.2406 244.272 54.7489 243.937 54.2138C243.629 53.743 243.384 53.2311 243.207 52.6921C243.056 52.236 242.954 51.7638 242.902 51.2841C242.902 50.7844 242.902 50.2734 242.902 49.751C242.902 49.2287 242.902 48.7177 242.902 48.2748C242.936 47.9052 243.04 47.5463 243.207 47.2187C243.365 46.9159 243.625 46.6851 243.937 46.5715C244.323 46.471 244.727 46.471 245.113 46.5715C245.7 46.6853 246.264 46.9043 246.78 47.2187V47.2187ZM257.191 54.1343C257.305 54.054 257.436 54.0034 257.572 53.9867C257.772 54.0003 257.964 54.0711 258.128 54.1911L259.685 55.1222C259.862 55.2313 260.017 55.3739 260.143 55.5424C260.243 55.6884 260.3 55.8623 260.306 56.0421C260.31 56.0836 260.31 56.1255 260.306 56.167C260.284 56.2074 260.259 56.2454 260.23 56.2805L247.4 66.1599C247.286 66.2402 247.156 66.2908 247.019 66.3075C246.819 66.2939 246.627 66.2232 246.464 66.1031L244.906 65.172C244.726 65.0691 244.569 64.9256 244.449 64.7518C244.348 64.6058 244.291 64.4319 244.285 64.2522C244.275 64.2151 244.275 64.1757 244.285 64.1386C244.3 64.0909 244.327 64.0479 244.362 64.0137L257.191 54.1343ZM248.152 54.1343C248.168 53.9682 248.168 53.8008 248.152 53.6347V52.1698C248.166 51.996 248.166 51.8212 248.152 51.6474C248.12 51.2478 248.004 50.8603 247.814 50.5119C247.567 50.0805 247.208 49.7303 246.78 49.5012C246.279 49.206 245.93 49.1151 245.69 49.2628C245.59 49.351 245.507 49.4602 245.449 49.5834C245.391 49.7065 245.358 49.841 245.353 49.9781C245.353 50.069 245.353 50.2393 245.353 50.4664C245.353 50.6936 245.353 50.932 245.353 51.1932C245.353 51.4544 245.353 51.6928 245.353 51.9313C245.353 52.1698 245.353 52.3515 245.353 52.465C245.395 52.8624 245.51 53.2478 245.69 53.6006C245.958 54.0326 246.335 54.3786 246.78 54.5999C247.28 54.9065 247.629 54.986 247.814 54.8497C247.915 54.7687 247.997 54.6657 248.055 54.548C248.114 54.4303 248.147 54.3007 248.152 54.1684V54.1343ZM258.019 63.4573C258.627 63.8143 259.187 64.2534 259.685 64.7632C260.129 65.2076 260.524 65.7028 260.861 66.2394C261.167 66.7115 261.412 67.223 261.591 67.761C261.742 68.2175 261.844 68.6896 261.896 69.1691C261.896 69.6688 261.896 70.1798 261.896 70.7135C261.896 71.2472 261.896 71.7355 261.896 72.1784C261.863 72.548 261.759 72.907 261.591 73.2345C261.434 73.5373 261.173 73.7681 260.861 73.8817C260.477 73.9942 260.07 73.9942 259.685 73.8817C259.096 73.7402 258.533 73.4985 258.019 73.1663C257.422 72.8064 256.866 72.3759 256.364 71.8831C255.919 71.4358 255.521 70.941 255.176 70.4069C254.877 69.931 254.632 69.4203 254.447 68.8853C254.293 68.4304 254.195 67.9574 254.153 67.4772C254.153 66.9889 254.098 66.4779 254.098 65.9442C254.098 65.4104 254.098 64.9222 254.153 64.4679C254.179 64.0984 254.279 63.7386 254.447 63.4118C254.61 63.1166 254.869 62.8913 255.176 62.7759C255.56 62.6471 255.969 62.6236 256.364 62.7078C256.955 62.8675 257.515 63.1326 258.019 63.4913V63.4573ZM259.402 70.4069C259.411 70.2405 259.411 70.0737 259.402 69.9073V68.4765C259.402 68.2493 259.402 68.0676 259.402 67.9541C259.365 67.5556 259.25 67.1693 259.064 66.8185C258.798 66.3831 258.421 66.0333 257.975 65.8079C257.474 65.5126 257.126 65.4218 256.941 65.5694C256.836 65.654 256.751 65.7625 256.693 65.8864C256.634 66.0104 256.604 66.1466 256.603 66.2848C256.591 66.4473 256.591 66.6106 256.603 66.7731C256.603 67.0002 256.603 67.2387 256.603 67.4999C256.603 67.7611 256.603 67.9995 256.603 68.238C256.592 68.4157 256.592 68.594 256.603 68.7717C256.635 69.1713 256.75 69.5588 256.941 69.9073C257.188 70.3386 257.546 70.6888 257.975 70.9179C258.476 71.2132 258.839 71.2927 259.064 71.1564C259.167 71.0701 259.251 70.9613 259.309 70.8377C259.368 70.7141 259.399 70.5787 259.402 70.441V70.4069Z" fill="#FAFAFA"/>
<path d="M66.6881 168.1C66.7268 167.361 66.9313 166.642 67.285 166.001C67.6387 165.36 68.1319 164.815 68.7247 164.409L98.2174 146.66C99.3065 145.979 100.254 146.535 100.254 147.898V177.616C100.217 178.354 100.013 179.074 99.6593 179.715C99.3055 180.356 98.8114 180.901 98.2174 181.306L85.867 188.733L81.9681 205.164C81.9811 205.465 81.8788 205.76 81.6838 205.982C81.4887 206.205 81.2168 206.337 80.928 206.351C80.6392 206.364 80.357 206.258 80.1435 206.054C79.9301 205.851 79.8029 205.568 79.7899 205.266L76.2286 194.513L68.6811 199.055C67.592 199.736 66.6445 199.18 66.6445 197.829L66.6881 168.1Z" fill="#263238"/>
<g opacity="0.5">
<path d="M66.6881 168.098C66.7268 167.359 66.9313 166.641 67.285 166C67.6387 165.358 68.1319 164.813 68.7247 164.407L98.2174 146.658C99.3065 145.977 100.254 146.533 100.254 147.896V177.614C100.217 178.352 100.013 179.072 99.6593 179.713C99.3055 180.354 98.8114 180.9 98.2174 181.304L85.867 188.731L81.9681 205.162C81.9811 205.464 81.8788 205.758 81.6838 205.98C81.4887 206.203 81.2168 206.335 80.928 206.349C80.6392 206.363 80.357 206.256 80.1435 206.053C79.9301 205.849 79.8029 205.566 79.7899 205.265L76.2286 194.511L68.6811 199.053C67.592 199.734 66.6445 199.178 66.6445 197.827L66.6881 168.098Z" fill="white"/>
</g>
<path d="M76.9918 165.884C77.5813 165.502 78.2298 165.229 78.9086 165.078C79.3644 164.982 79.8359 165.005 80.2809 165.146C80.6388 165.28 80.9371 165.547 81.1195 165.895C81.3142 166.27 81.4294 166.685 81.4571 167.11C81.5007 167.633 81.5224 168.2 81.5224 168.814C81.5224 169.427 81.5007 170.017 81.4571 170.585C81.4094 171.143 81.296 171.692 81.1195 172.22C80.9107 172.837 80.629 173.425 80.2809 173.969C79.8868 174.589 79.4264 175.161 78.9086 175.672C78.3298 176.247 77.6862 176.747 76.9918 177.16C76.3952 177.541 75.7446 177.82 75.0641 177.989C74.6133 178.094 74.1441 178.074 73.7027 177.932C73.3448 177.798 73.0465 177.531 72.8641 177.183C72.6659 176.808 72.547 176.394 72.5156 175.968C72.5156 175.445 72.5156 174.832 72.5156 174.264C72.5156 173.697 72.5156 173.061 72.5156 172.493C72.5677 171.935 72.6848 171.386 72.8641 170.858C73.0683 170.239 73.3503 169.651 73.7027 169.109C74.0988 168.49 74.555 167.915 75.0641 167.394C75.6453 166.811 76.2927 166.304 76.9918 165.884V165.884ZM88.9718 159.4C89.0954 159.151 89.2413 158.916 89.4075 158.696C89.5907 158.478 89.808 158.293 90.05 158.151L91.8579 157.015C92.0081 156.9 92.196 156.851 92.3807 156.879C92.5114 156.879 92.5767 157.027 92.5767 157.208C92.5844 157.269 92.5844 157.33 92.5767 157.39L92.4896 157.628L77.6561 186.903C77.5326 187.148 77.3868 187.38 77.2205 187.596C77.0396 187.816 76.8219 188.001 76.5779 188.141L74.7809 189.276C74.6264 189.392 74.4354 189.44 74.2473 189.413C74.1166 189.413 74.0513 189.265 74.0513 189.083C74.0436 189.023 74.0436 188.962 74.0513 188.902L74.1384 188.663L88.9718 159.4ZM78.5819 172.039C78.5967 171.835 78.5967 171.63 78.5819 171.425V169.733C78.5977 169.541 78.5977 169.347 78.5819 169.154C78.5759 168.995 78.5379 168.839 78.4704 168.696C78.4028 168.554 78.3073 168.427 78.1898 168.325C77.972 168.166 77.569 168.325 76.9918 168.609C76.5463 168.843 76.166 169.193 75.8876 169.624C75.6091 170.056 75.4418 170.555 75.4017 171.073C75.3858 171.281 75.3858 171.49 75.4017 171.698C75.4017 171.971 75.4017 172.254 75.4017 172.55C75.4017 172.845 75.4017 173.117 75.4017 173.39C75.3847 173.579 75.3847 173.769 75.4017 173.958C75.4017 174.118 75.4371 174.276 75.5051 174.42C75.573 174.564 75.6718 174.689 75.7938 174.787C76.0116 174.946 76.4037 174.843 76.9918 174.503C77.4832 174.246 77.8976 173.853 78.1898 173.367C78.4067 172.957 78.5402 172.505 78.5819 172.039V172.039ZM89.9847 169.086C90.5791 168.704 91.2306 168.427 91.9124 168.269C92.3645 168.173 92.8325 168.196 93.2738 168.337C93.6317 168.471 93.93 168.738 94.1124 169.086C94.3106 169.461 94.4295 169.875 94.4609 170.301C94.4609 170.824 94.5153 171.437 94.5153 172.005C94.5153 172.572 94.5153 173.208 94.4609 173.776C94.4096 174.334 94.2926 174.883 94.1124 175.411C93.9062 176.033 93.6244 176.625 93.2738 177.171C92.4396 178.484 91.3202 179.574 90.0065 180.351C89.415 180.734 88.7676 181.014 88.0897 181.18C87.6357 181.291 87.1615 181.271 86.7174 181.123C86.3573 180.992 86.0578 180.725 85.8788 180.374C85.6828 179.999 85.5675 179.584 85.5412 179.159C85.5412 178.648 85.4758 178.023 85.4758 177.467C85.4758 176.91 85.4758 176.252 85.5412 175.684C85.5882 175.13 85.7016 174.584 85.8788 174.06C86.0874 173.439 86.3691 172.848 86.7174 172.3C87.114 171.678 87.5741 171.103 88.0897 170.585C88.6536 169.989 89.2908 169.474 89.9847 169.052V169.086ZM91.5748 175.196C91.5896 174.991 91.5896 174.786 91.5748 174.582V172.902C91.5905 172.709 91.5905 172.515 91.5748 172.323C91.5756 172.162 91.5406 172.004 91.4726 171.86C91.4045 171.716 91.3053 171.591 91.1827 171.494C90.9649 171.335 90.5728 171.425 89.9847 171.777C89.4951 172.037 89.0814 172.43 88.7867 172.913C88.5764 173.318 88.4432 173.761 88.3946 174.219C88.3841 174.423 88.3841 174.628 88.3946 174.832C88.3946 175.116 88.3946 175.4 88.3946 175.684C88.3946 175.968 88.3946 176.263 88.3946 176.524C88.3833 176.713 88.3833 176.903 88.3946 177.092C88.4006 177.251 88.4386 177.407 88.5061 177.55C88.5737 177.693 88.6692 177.819 88.7867 177.921C89.0045 178.08 89.4075 177.989 89.9847 177.637C90.4764 177.38 90.8909 176.987 91.1827 176.501C91.4073 176.091 91.5412 175.633 91.5748 175.161V175.196Z" fill="#FAFAFA"/>
<path d="M41.3774 242.125C41.3774 242.125 43.1635 225.455 38.2081 209.58C33.5468 194.568 24.1806 186.607 18.5064 184.223C7.77884 179.76 6.82044 192.081 14.8579 200.609C20.7499 206.877 34.9299 219.8 37.3695 241.716L41.3774 242.125Z" fill="#263238"/>
<path opacity="0.7" d="M41.3774 242.125C41.3774 242.125 43.1635 225.455 38.2081 209.58C33.5468 194.568 24.1806 186.607 18.5064 184.223C7.77884 179.76 6.82044 192.081 14.8579 200.609C20.7499 206.877 34.9299 219.8 37.3695 241.716L41.3774 242.125Z" fill="white"/>
<path d="M15.6094 187.664C22.0895 192.206 39.5041 205.322 40.1358 242.001" stroke="#FAFAFA" stroke-width="1.08419" stroke-miterlimit="10" stroke-linecap="round"/>
<path d="M36.8132 253.515C33.4806 236.709 26.6738 230.611 14.5086 224.116C9.30272 221.345 3.20379 218.256 1.00382 214.725C-1.19615 211.193 -0.0852688 206.446 7.4077 206.548C21.0976 206.742 36.6934 223.945 38.7736 242.796L36.8132 253.515Z" fill="#263238"/>
<path opacity="0.8" d="M36.8132 253.515C33.4806 236.709 26.6738 230.611 14.5086 224.116C9.30272 221.345 3.20379 218.256 1.00382 214.725C-1.19615 211.193 -0.0852688 206.446 7.4077 206.548C21.0976 206.742 36.6934 223.945 38.7736 242.796L36.8132 253.515Z" fill="white"/>
<path d="M6.25391 210.203C16.5894 211.668 32.9149 224.227 38.099 246.541" stroke="#FAFAFA" stroke-width="1.08419" stroke-miterlimit="10" stroke-linecap="round"/>
<path d="M418.64 234.255C422.833 225.852 426.089 202.278 420.698 191.377C415.307 180.475 407.291 181.35 406.05 184.881C404.961 188.14 407.651 193.966 411.136 200.904C414.621 207.842 417.562 222.707 414.262 229.634L418.64 234.255Z" fill="#263238"/>
<path opacity="0.7" d="M418.64 234.255C422.833 225.852 426.089 202.278 420.698 191.377C415.307 180.475 407.291 181.35 406.05 184.881C404.961 188.14 407.651 193.966 411.136 200.904C414.621 207.842 417.562 222.707 414.262 229.634L418.64 234.255Z" fill="white"/>
<path d="M411.344 185.449C414.774 188.322 424.598 205.889 417.726 229.997" stroke="#FAFAFA" stroke-width="1.08419" stroke-miterlimit="10" stroke-linecap="round"/>
<path d="M417.309 243.158C414.783 237.889 409.25 229.168 413.018 223.184C416.787 217.199 420.729 222.491 423.757 218.585C426.784 214.678 423.321 208.365 425.935 204.958C430.988 198.258 434.648 206.037 438.612 205.015C441.476 204.277 444.667 197.656 452.912 198.462C461.156 199.269 460.742 206.082 457.072 209.284C453.402 212.487 449.046 215.678 451.877 220.481C454.382 224.739 455.678 232.609 447.107 235.663C438.917 238.582 442.968 242.284 441.661 246.463C440.355 250.642 432.622 254.605 424.399 251.38L417.309 243.158Z" fill="#263238"/>
<path opacity="0.8" d="M417.309 243.158C414.783 237.889 409.25 229.168 413.018 223.184C416.787 217.199 420.729 222.491 423.757 218.585C426.784 214.678 423.321 208.365 425.935 204.958C430.988 198.258 434.648 206.037 438.612 205.015C441.476 204.277 444.667 197.656 452.912 198.462C461.156 199.269 460.742 206.082 457.072 209.284C453.402 212.487 449.046 215.678 451.877 220.481C454.382 224.739 455.678 232.609 447.107 235.663C438.917 238.582 442.968 242.284 441.661 246.463C440.355 250.642 432.622 254.605 424.399 251.38L417.309 243.158Z" fill="white"/>
<path d="M454.046 202.324C445.116 204.822 423.726 222.946 421.918 245.691" stroke="#FAFAFA" stroke-width="1.08419" stroke-miterlimit="10" stroke-linecap="round"/>
<path d="M447.607 226.204C443.197 225.159 431.99 225.012 427.797 227.135" stroke="#FAFAFA" stroke-width="1.08419" stroke-miterlimit="10" stroke-linecap="round"/>
<path d="M430.293 206.957C430.293 206.957 433.56 213.555 433.092 219.108" stroke="#FAFAFA" stroke-width="1.08419" stroke-miterlimit="10" stroke-linecap="round"/>
</svg>
