<svg width="814" height="639" viewBox="0 0 814 639" fill="none" xmlns="http://www.w3.org/2000/svg">
<path d="M731.933 582.662H678.051V583.086H731.933V582.662Z" fill="#EBEBEB"/>
<path d="M538.856 587.275H524.719V587.699H538.856V587.275Z" fill="#EBEBEB"/>
<path d="M676.427 566.92H645.207V567.344H676.427V566.92Z" fill="#EBEBEB"/>
<path d="M155.613 569.77H85.3477V570.194H155.613V569.77Z" fill="#EBEBEB"/>
<path d="M180.404 569.77H170.105V570.194H180.404V569.77Z" fill="#EBEBEB"/>
<path d="M366.293 576.928H213.887V577.352H366.293V576.928Z" fill="#EBEBEB"/>
<path d="M387.847 479.713H73.6958C71.232 479.713 68.8692 478.693 67.1271 476.876C65.385 475.06 64.4063 472.596 64.4062 470.027V9.60105C64.4277 7.04692 65.4159 4.60502 67.1557 2.80687C68.8955 1.00872 71.2461 -9.79204e-05 73.6958 7.12877e-09H387.847C389.067 7.12879e-09 390.275 0.25053 391.402 0.73729C392.529 1.22405 393.553 1.93751 394.416 2.83692C395.278 3.73634 395.963 4.8041 396.429 5.97925C396.896 7.15439 397.137 8.4139 397.137 9.68586V470.027C397.137 471.299 396.896 472.559 396.429 473.734C395.963 474.909 395.278 475.977 394.416 476.876C393.553 477.776 392.529 478.489 391.402 478.976C390.275 479.463 389.067 479.713 387.847 479.713V479.713ZM73.6958 0.339261C71.3412 0.343745 69.0843 1.32098 67.4194 3.05693C65.7545 4.79288 64.8173 7.14605 64.813 9.60105V470.027C64.8173 472.482 65.7545 474.835 67.4194 476.571C69.0843 478.307 71.3412 479.285 73.6958 479.289H387.847C390.202 479.285 392.459 478.307 394.123 476.571C395.788 474.835 396.726 472.482 396.73 470.027V9.60105C396.726 7.14605 395.788 4.79288 394.123 3.05693C392.459 1.32098 390.202 0.343745 387.847 0.339261H73.6958Z" fill="#EBEBEB"/>
<path d="M739.746 479.713H425.594C423.13 479.713 420.768 478.693 419.026 476.876C417.283 475.06 416.305 472.596 416.305 470.027V9.60105C416.326 7.04692 417.314 4.60502 419.054 2.80687C420.794 1.00872 423.145 -9.79204e-05 425.594 7.12877e-09H739.746C742.209 7.1288e-09 744.572 1.02047 746.314 2.83692C748.056 4.65338 749.035 7.11701 749.035 9.68586V470.027C749.035 472.596 748.056 475.06 746.314 476.876C744.572 478.693 742.209 479.713 739.746 479.713V479.713ZM425.594 0.339261C423.24 0.343745 420.983 1.32098 419.318 3.05693C417.653 4.79288 416.716 7.14605 416.711 9.60105V470.027C416.716 472.482 417.653 474.835 419.318 476.571C420.983 478.307 423.24 479.285 425.594 479.289H739.746C742.1 479.285 744.357 478.307 746.022 476.571C747.687 474.835 748.624 472.482 748.628 470.027V9.60105C748.624 7.14605 747.687 4.79288 746.022 3.05693C744.357 1.32098 742.1 0.343745 739.746 0.339261H425.594Z" fill="#EBEBEB"/>
<path d="M813.442 555.367H0V555.791H813.442V555.367Z" fill="#EBEBEB"/>
<path d="M726.987 66.7832H463.367V555.351H726.987V66.7832Z" fill="#FAFAFA"/>
<path d="M712.591 107.443H482.875V555.351H712.591V107.443Z" fill="#EBEBEB"/>
<path d="M707.093 116.281H599.02V546.513H707.093V116.281Z" fill="#FAFAFA"/>
<path d="M596.465 117.146H488.391V547.379H596.465V117.146Z" fill="#FAFAFA"/>
<path d="M613.419 78.2832H578.652V90.6492H613.419V78.2832Z" fill="#F0F0F0"/>
<path d="M348.773 66.7832H85.1523V555.351H348.773V66.7832Z" fill="#FAFAFA"/>
<path d="M334.357 107.443H104.641V555.351H334.357V107.443Z" fill="#EBEBEB"/>
<path d="M328.859 116.281H220.785V546.513H328.859V116.281Z" fill="#FAFAFA"/>
<path d="M218.23 117.146H110.156V547.379H218.23V117.146Z" fill="#FAFAFA"/>
<path d="M235.181 78.2832H200.414V90.6492H235.181V78.2832Z" fill="#F0F0F0"/>
<path d="M421.706 229.916H390.438V292.747H421.706V229.916Z" fill="#E6E6E6"/>
<path d="M406.414 243.215C408.344 243.215 410.231 243.812 411.837 244.93C413.442 246.048 414.693 247.638 415.432 249.498C416.171 251.357 416.364 253.404 415.987 255.378C415.611 257.353 414.681 259.166 413.316 260.589C411.951 262.013 410.212 262.982 408.318 263.375C406.424 263.768 404.462 263.566 402.678 262.796C400.895 262.025 399.37 260.721 398.297 259.047C397.225 257.373 396.652 255.406 396.652 253.393C396.652 250.693 397.681 248.105 399.511 246.196C401.342 244.287 403.825 243.215 406.414 243.215V243.215Z" fill="#F5F5F5"/>
<path d="M411.648 255.073H401.188L406.589 247.406L411.648 255.073Z" fill="#E6E6E6"/>
<path d="M406.414 264.928C408.344 264.928 410.231 265.525 411.837 266.643C413.442 267.761 414.693 269.351 415.432 271.211C416.171 273.07 416.364 275.117 415.987 277.091C415.611 279.065 414.681 280.879 413.316 282.302C411.951 283.726 410.212 284.695 408.318 285.088C406.424 285.48 404.462 285.279 402.678 284.509C400.895 283.738 399.37 282.434 398.297 280.76C397.225 279.086 396.652 277.118 396.652 275.106C396.652 272.406 397.681 269.817 399.511 267.909C401.342 266 403.825 264.928 406.414 264.928V264.928Z" fill="#F5F5F5"/>
<path d="M411.648 272.494H401.188L406.589 280.178L411.648 272.494Z" fill="#E6E6E6"/>
<path d="M374.768 353.102H438.932V550.822C438.932 551.419 438.82 552.01 438.601 552.562C438.382 553.113 438.06 553.614 437.655 554.037C437.251 554.459 436.77 554.794 436.241 555.022C435.712 555.251 435.145 555.368 434.572 555.368H379.063C378.491 555.368 377.924 555.251 377.395 555.022C376.866 554.794 376.385 554.459 375.98 554.037C375.575 553.614 375.254 553.113 375.035 552.562C374.816 552.01 374.703 551.419 374.703 550.822V353.102H374.768Z" fill="#EBEBEB"/>
<path d="M407.827 412.607C419.696 412.607 429.318 406.865 429.318 399.783C429.318 392.7 419.696 386.959 407.827 386.959C395.958 386.959 386.336 392.7 386.336 399.783C386.336 406.865 395.958 412.607 407.827 412.607Z" fill="#E0E0E0"/>
<path d="M376.9 349.879H437.502C438.615 349.879 439.683 350.34 440.47 351.161C441.257 351.981 441.699 353.095 441.699 354.255V366.129H372.703V354.255C372.703 353.095 373.145 351.981 373.932 351.161C374.72 350.34 375.787 349.879 376.9 349.879Z" fill="#F5F5F5"/>
<path d="M379.698 367.707C379.047 367.707 378.543 368.793 378.543 370.133V549.94C378.543 551.263 379.047 552.349 379.698 552.349C380.349 552.349 380.853 551.263 380.853 549.94V370.133C380.853 368.793 380.333 367.707 379.698 367.707Z" fill="#FAFAFA"/>
<path d="M342.698 638.039C516.909 638.039 658.135 629.442 658.135 618.837C658.135 608.232 516.909 599.635 342.698 599.635C168.488 599.635 27.2617 608.232 27.2617 618.837C27.2617 629.442 168.488 638.039 342.698 638.039Z" fill="#F5F5F5"/>
<path d="M401.839 527.956C401.646 527.958 401.459 527.887 401.312 527.756C401.166 527.625 401.07 527.443 401.042 527.243C401.042 527.057 397.788 507.227 386.156 496.099C376.785 487.16 367.186 467.568 366.78 466.736C366.73 466.638 366.699 466.53 366.69 466.418C366.681 466.307 366.694 466.195 366.727 466.089C366.761 465.983 366.814 465.885 366.885 465.801C366.955 465.717 367.041 465.649 367.138 465.6C367.33 465.499 367.552 465.482 367.757 465.552C367.961 465.622 368.13 465.773 368.228 465.973C368.325 466.177 378.103 486.125 387.246 494.81C399.334 506.328 402.506 526.09 402.636 526.921C402.67 527.143 402.619 527.37 402.494 527.554C402.37 527.738 402.181 527.864 401.969 527.905L401.839 527.956Z" fill="#263238"/>
<path d="M388.581 501.103C388.581 501.103 376.184 497.964 380.447 507.379C384.709 516.793 394.649 512.756 394.649 512.756C394.649 512.756 403.093 505.801 398.782 497.49C394.47 489.178 388.581 501.103 388.581 501.103Z" fill="#263238"/>
<path opacity="0.1" d="M398.829 497.405C394.518 488.924 388.58 501.103 388.58 501.103C388.58 501.103 387.685 507.159 394.697 512.757C394.697 512.757 403.141 505.802 398.829 497.405Z" fill="black"/>
<path d="M368.016 466.481C368.016 466.481 360.158 457.44 359.881 466.6C359.605 475.76 368.26 478.237 368.26 478.237C368.26 478.237 376.817 477.83 376.655 469.399C376.492 460.968 368.016 466.481 368.016 466.481Z" fill="#263238"/>
<path opacity="0.1" d="M376.737 469.348C376.558 460.867 368.017 466.43 368.017 466.43C368.017 466.43 365.251 470.315 368.342 478.186C368.342 478.186 376.9 477.779 376.737 469.348Z" fill="black"/>
<path d="M377.971 483.444C377.971 483.444 374.88 470.688 381.566 474.471C388.253 478.253 386.317 488.94 386.317 488.94C386.317 488.94 382.282 498.355 376.279 494.504C370.276 490.653 377.971 483.444 377.971 483.444Z" fill="#263238"/>
<path opacity="0.1" d="M376.279 494.555C370.259 490.687 377.906 483.495 377.906 483.495C377.906 483.495 381.924 482.087 386.252 488.991C386.317 488.991 382.315 498.406 376.279 494.555Z" fill="black"/>
<path d="M412.138 527.955C412.063 527.973 411.985 527.973 411.91 527.955C411.806 527.926 411.709 527.875 411.625 527.806C411.54 527.737 411.47 527.65 411.419 527.552C411.367 527.454 411.335 527.346 411.324 527.234C411.314 527.123 411.325 527.01 411.357 526.903C411.568 526.157 416.612 508.617 429.253 498.694C436.655 492.906 442.761 485.509 447.148 477.015C447.192 476.914 447.255 476.823 447.333 476.747C447.411 476.672 447.503 476.613 447.603 476.575C447.703 476.537 447.809 476.521 447.916 476.526C448.022 476.532 448.126 476.56 448.222 476.608C448.32 476.656 448.408 476.723 448.48 476.806C448.553 476.888 448.609 476.986 448.645 477.091C448.682 477.197 448.697 477.309 448.692 477.421C448.686 477.534 448.659 477.644 448.613 477.745C444.148 486.495 437.881 494.107 430.261 500.034C418.043 509.635 412.984 527.175 412.935 527.378C412.877 527.55 412.769 527.697 412.626 527.801C412.483 527.904 412.312 527.958 412.138 527.955V527.955Z" fill="#263238"/>
<path d="M409.795 527.954C409.587 527.954 409.387 527.872 409.236 527.724C409.085 527.576 408.994 527.373 408.981 527.157C408.981 527.004 408.07 511.754 407.11 497.472C406.15 483.189 401.27 475.42 401.221 475.42C401.161 475.327 401.12 475.222 401.1 475.112C401.08 475.003 401.081 474.89 401.104 474.78C401.127 474.671 401.171 474.568 401.233 474.476C401.295 474.385 401.374 474.308 401.465 474.249C401.646 474.128 401.866 474.087 402.077 474.135C402.287 474.182 402.471 474.315 402.588 474.504C402.799 474.843 407.761 482.985 408.737 497.438C409.713 511.89 410.608 526.987 410.608 527.14C410.615 527.251 410.6 527.363 410.565 527.469C410.53 527.574 410.476 527.671 410.405 527.755C410.334 527.838 410.248 527.907 410.151 527.955C410.055 528.004 409.95 528.032 409.843 528.039L409.795 527.954Z" fill="#263238"/>
<path d="M406.882 486.836C406.882 486.836 403.27 476.93 412.071 479.491C420.873 482.053 417.831 490.636 417.831 490.636C417.831 490.636 412.055 498.337 404.165 495.725C396.274 493.113 406.882 486.836 406.882 486.836Z" fill="#263238"/>
<path opacity="0.1" d="M404.165 495.743C396.274 493.063 406.882 486.905 406.882 486.905C408.865 486.599 410.889 486.784 412.791 487.444C414.692 488.104 416.419 489.221 417.831 490.705C417.831 490.705 412.055 498.406 404.165 495.743Z" fill="black"/>
<path d="M441.272 488.533C441.272 488.533 437.661 478.644 446.478 481.205C455.296 483.766 452.238 492.35 452.238 492.35C452.238 492.35 446.446 500.051 438.555 497.439C430.665 494.826 441.272 488.533 441.272 488.533Z" fill="#263238"/>
<path opacity="0.1" d="M438.555 497.439C430.665 494.776 441.272 488.601 441.272 488.601C443.259 488.301 445.285 488.491 447.189 489.153C449.093 489.816 450.822 490.934 452.238 492.418C452.238 492.418 446.446 500.119 438.555 497.439Z" fill="black"/>
<path d="M421.46 509.838C421.46 509.838 419.703 499.186 427.837 504.122C435.972 509.058 431.465 516.573 431.465 516.573C431.465 516.573 424.453 522.493 417.23 517.709C410.006 512.926 421.46 509.838 421.46 509.838Z" fill="#263238"/>
<path opacity="0.1" d="M417.231 517.709C410.024 512.925 421.461 509.838 421.461 509.838C421.461 509.838 427.008 509.991 431.466 516.623C431.466 516.572 424.454 522.458 417.231 517.709Z" fill="black"/>
<path d="M407.807 503.952C407.807 503.952 405.351 497.167 411.354 498.948C412.126 499.113 412.854 499.453 413.486 499.943C414.118 500.433 414.64 501.061 415.014 501.784C415.388 502.507 415.605 503.307 415.65 504.127C415.695 504.947 415.567 505.768 415.275 506.531C415.275 506.531 411.338 511.789 405.953 509.923C400.568 508.057 407.807 503.952 407.807 503.952Z" fill="#263238"/>
<path opacity="0.1" d="M405.953 509.974C400.568 508.159 407.807 503.952 407.807 503.952C409.159 503.743 410.538 503.868 411.835 504.315C413.132 504.763 414.31 505.522 415.275 506.53C415.275 506.53 411.338 511.789 405.953 509.974Z" fill="black"/>
<path d="M402.456 474.302C402.456 474.302 405.547 463.988 398.389 466.872C391.231 469.756 393.509 478.526 393.509 478.526C393.509 478.526 398.048 486.312 404.457 483.36C410.867 480.409 402.456 474.302 402.456 474.302Z" fill="#263238"/>
<path opacity="0.1" d="M404.508 483.445C411.015 480.476 402.458 474.387 402.458 474.387C402.458 474.387 398.098 473.098 393.559 478.611C393.559 478.526 398.098 486.312 404.508 483.445Z" fill="black"/>
<path d="M447.392 473.454C447.392 473.454 443.878 467.025 449.182 467.5C454.485 467.975 454.062 474.488 454.062 474.488C454.062 474.488 451.996 480.799 447.181 480.103C442.365 479.408 447.392 473.454 447.392 473.454Z" fill="#263238"/>
<path opacity="0.1" d="M447.198 480.052C442.317 479.373 447.393 473.402 447.393 473.402C447.393 473.402 450.208 471.604 454.08 474.437C454.08 474.488 452.013 480.798 447.198 480.052Z" fill="black"/>
<path d="M431.626 495.913C431.626 495.913 444.17 493.775 437.613 486.668C431.057 479.56 422.776 487.414 422.776 487.414C422.776 487.414 416.643 497.456 422.939 503.614C429.235 509.771 431.626 495.913 431.626 495.913Z" fill="#263238"/>
<path opacity="0.1" d="M422.987 503.612C429.283 509.77 431.675 495.911 431.675 495.911C431.675 495.911 430.926 489.821 422.824 487.43C422.776 487.413 416.642 497.455 422.987 503.612Z" fill="black"/>
<path d="M399.576 513.724C399.576 513.724 396.485 500.951 403.172 504.734C409.858 508.516 407.922 519.22 407.922 519.22C407.922 519.22 403.887 528.634 397.884 524.767C391.881 520.899 399.576 513.724 399.576 513.724Z" fill="#263238"/>
<path opacity="0.1" d="M397.884 524.766C391.865 520.898 399.511 513.723 399.511 513.723C399.511 513.723 403.513 512.298 407.857 519.219C407.922 519.219 403.888 528.633 397.884 524.766Z" fill="black"/>
<path d="M381.355 590.311V598.792H387.863C387.978 597.728 388.477 596.749 389.26 596.055C390.043 595.362 391.051 595.006 392.077 595.06H425.525C426.583 594.985 427.626 595.347 428.43 596.067C429.234 596.788 429.733 597.809 429.82 598.911H436.328V590.429L381.355 590.311Z" fill="#263238"/>
<path d="M435.89 591.21H381.715C377.534 591.21 373.971 582.729 373.337 571.024L371.043 529.55C371.007 528.915 371.097 528.279 371.306 527.681C371.514 527.083 371.838 526.536 372.257 526.074C372.676 525.612 373.182 525.244 373.742 524.993C374.303 524.741 374.907 524.612 375.517 524.613H442.089C442.7 524.61 443.305 524.737 443.866 524.988C444.428 525.238 444.934 525.606 445.353 526.069C445.773 526.532 446.097 527.079 446.305 527.678C446.513 528.277 446.601 528.914 446.563 529.55L444.285 571.024C443.634 582.644 440.071 591.21 435.89 591.21Z" fill="#263238"/>
<path opacity="0.2" d="M435.89 591.21H381.715C377.534 591.21 373.971 582.729 373.337 571.024L371.043 529.55C371.007 528.915 371.097 528.279 371.306 527.681C371.514 527.083 371.838 526.536 372.257 526.074C372.676 525.612 373.182 525.244 373.742 524.993C374.303 524.741 374.907 524.612 375.517 524.613H442.089C442.7 524.61 443.305 524.737 443.866 524.988C444.428 525.238 444.934 525.606 445.353 526.069C445.773 526.532 446.097 527.079 446.305 527.678C446.513 528.277 446.601 528.914 446.563 529.55L444.285 571.024C443.634 582.644 440.071 591.21 435.89 591.21Z" fill="white"/>
<path d="M398.665 174.141C398.449 174.141 398.242 174.052 398.09 173.893C397.937 173.734 397.852 173.518 397.852 173.293V156.584C397.852 156.36 397.937 156.144 398.09 155.985C398.242 155.826 398.449 155.736 398.665 155.736C398.881 155.736 399.088 155.826 399.24 155.985C399.393 156.144 399.478 156.36 399.478 156.584V173.293C399.478 173.518 399.393 173.734 399.24 173.893C399.088 174.052 398.881 174.141 398.665 174.141Z" fill="#263238"/>
<path d="M379.258 177.941C379.142 177.939 379.026 177.913 378.92 177.864C378.814 177.814 378.718 177.742 378.64 177.652L372.555 170.121C372.472 170.039 372.406 169.939 372.363 169.829C372.319 169.718 372.298 169.599 372.301 169.48C372.304 169.361 372.332 169.243 372.382 169.136C372.432 169.028 372.503 168.933 372.59 168.856C372.678 168.779 372.78 168.722 372.89 168.689C373 168.656 373.116 168.648 373.229 168.665C373.343 168.682 373.452 168.723 373.549 168.787C373.645 168.851 373.728 168.935 373.792 169.035L379.925 176.55C380.063 176.724 380.13 176.947 380.111 177.172C380.093 177.398 379.991 177.606 379.827 177.754C379.664 177.884 379.463 177.95 379.258 177.941V177.941Z" fill="#263238"/>
<path d="M384.366 184.218C384.248 184.219 384.13 184.193 384.023 184.14C383.916 184.087 383.822 184.009 383.748 183.913L381.926 181.691C381.785 181.52 381.716 181.298 381.733 181.073C381.75 180.849 381.851 180.641 382.015 180.495C382.179 180.348 382.392 180.276 382.607 180.294C382.822 180.311 383.022 180.417 383.162 180.588L384.984 182.827C385.083 182.95 385.146 183.1 385.166 183.26C385.186 183.419 385.162 183.581 385.097 183.726C385.033 183.872 384.929 183.996 384.8 184.083C384.671 184.17 384.52 184.217 384.366 184.218V184.218Z" fill="#263238"/>
<path d="M413.096 184.081C412.942 184.079 412.791 184.032 412.662 183.945C412.532 183.858 412.429 183.735 412.364 183.589C412.3 183.443 412.276 183.282 412.296 183.122C412.316 182.963 412.379 182.813 412.477 182.69L419.31 174.293C419.38 174.208 419.465 174.139 419.56 174.088C419.655 174.038 419.759 174.007 419.865 173.999C419.972 173.99 420.079 174.003 420.181 174.038C420.282 174.072 420.376 174.127 420.457 174.2C420.539 174.272 420.605 174.36 420.654 174.46C420.702 174.559 420.731 174.667 420.74 174.778C420.748 174.889 420.735 175.001 420.702 175.107C420.669 175.213 420.616 175.311 420.547 175.396L413.714 183.775C413.639 183.871 413.545 183.948 413.438 184.001C413.331 184.053 413.214 184.081 413.096 184.081Z" fill="#263238"/>
<path d="M422.683 172.309C422.491 172.309 422.306 172.237 422.162 172.106C421.998 171.958 421.896 171.749 421.878 171.524C421.86 171.299 421.927 171.076 422.064 170.901L423.594 169.035C423.735 168.865 423.935 168.758 424.151 168.739C424.367 168.72 424.581 168.79 424.749 168.934C424.831 169.004 424.899 169.091 424.949 169.189C424.999 169.288 425.029 169.395 425.038 169.506C425.047 169.617 425.035 169.728 425.002 169.834C424.969 169.939 424.916 170.037 424.846 170.121L423.317 172.004C423.24 172.101 423.143 172.179 423.033 172.231C422.923 172.284 422.803 172.311 422.683 172.309Z" fill="#263238"/>
<path d="M575.883 572.602L599.31 564.629L608.648 593.347L589.077 600.048L575.883 572.602Z" fill="#CE7A63"/>
<path opacity="0.2" d="M575.898 572.619L599.326 564.629L603.702 578.081L582.194 585.731L575.898 572.619Z" fill="black"/>
<path d="M579.172 598.504C577.008 599.114 574.844 599.386 573.949 598.504C573.71 598.278 573.541 597.984 573.463 597.657C573.384 597.331 573.401 596.988 573.51 596.672C573.582 596.391 573.711 596.129 573.888 595.904C574.065 595.679 574.285 595.495 574.535 595.366C577.138 593.788 583.906 595.654 584.199 595.739C584.28 595.762 584.353 595.81 584.408 595.876C584.463 595.943 584.498 596.025 584.508 596.112C584.515 596.201 584.497 596.29 584.457 596.368C584.416 596.446 584.355 596.51 584.28 596.553C582.641 597.372 580.93 598.025 579.172 598.504V598.504ZM575.641 595.807C575.386 595.891 575.136 595.993 574.893 596.112C574.742 596.192 574.609 596.304 574.502 596.442C574.396 596.579 574.318 596.739 574.275 596.909C574.112 597.503 574.275 597.723 574.405 597.859C575.479 598.775 579.757 597.622 582.751 596.316C580.433 595.675 578.018 595.514 575.641 595.841V595.807Z" fill="#263238"/>
<path d="M584.2 596.638H584.053C581.776 596.248 576.781 593.568 576.602 591.55C576.593 591.182 576.707 590.822 576.923 590.531C577.139 590.241 577.446 590.037 577.79 589.955C578.168 589.787 578.575 589.701 578.985 589.701C579.396 589.701 579.803 589.787 580.181 589.955C582.8 591.21 584.427 595.79 584.509 595.994C584.548 596.057 584.569 596.131 584.569 596.206C584.569 596.281 584.548 596.355 584.509 596.418L584.2 596.638ZM578.294 590.633H578.034C577.35 590.922 577.383 591.21 577.383 591.329C577.383 592.55 580.995 594.722 583.402 595.519C582.717 593.569 581.459 591.895 579.807 590.735C579.334 590.499 578.792 590.463 578.294 590.633Z" fill="#263238"/>
<path d="M586.1 592.635L605.736 585.849C606.067 585.746 606.421 585.764 606.741 585.9C607.06 586.036 607.326 586.281 607.493 586.596L614.912 599.403C615.563 600.743 613.496 603.22 613.285 603.27C603.768 607.545 579.218 616.518 572.206 618.707C565.194 620.895 562.201 613.94 564.885 612.396C576.908 605.442 580.601 599.878 583.594 594.755C584.128 593.731 585.029 592.968 586.1 592.635V592.635Z" fill="#263238"/>
<path d="M464.217 575.961L489.58 578.149L485.269 609.242L464.07 607.444L464.217 575.961Z" fill="#CE7A63"/>
<path opacity="0.2" d="M464.214 575.977L489.593 578.165L487.511 593.092L464.148 591.26L464.214 575.977Z" fill="black"/>
<path d="M512.679 485.141C522.57 445.38 551.024 356.121 531.209 319.65L460.407 326.52C460.407 326.52 459.219 438.256 458.78 475.438C458.259 514.114 461.464 587.208 461.464 587.208L490.52 589.497C490.52 589.497 510.368 529.754 512.679 485.141Z" fill="#263238"/>
<g opacity="0.3">
<path d="M512.679 485.141C522.57 445.38 551.024 356.121 531.209 319.65L460.407 326.52C460.407 326.52 459.219 438.256 458.78 475.438C458.259 514.114 461.464 587.208 461.464 587.208L490.52 589.497C490.52 589.497 510.368 529.754 512.679 485.141Z" fill="white"/>
</g>
<path opacity="0.2" d="M517.088 369.793C517.414 378.97 532.202 415.983 531.242 425.499C527.761 438.001 520.326 458.323 516.356 470.468C511.134 436.05 517.088 369.793 517.088 369.793Z" fill="black"/>
<path d="M584.623 472.249C588.072 432.046 598.744 338.699 584.818 321.516L510.551 323.314C510.551 323.314 521.939 440.901 528.918 477.982C536.142 516.556 578.506 583.153 578.506 583.153L604.617 574.044C604.617 574.044 593.375 518.134 584.623 472.249Z" fill="#263238"/>
<g opacity="0.3">
<path d="M584.623 472.249C588.072 432.046 598.744 338.699 584.818 321.516L510.551 323.314C510.551 323.314 521.939 440.901 528.918 477.982C536.142 516.556 578.506 583.153 578.506 583.153L604.617 574.044C604.617 574.044 593.375 518.134 584.623 472.249Z" fill="white"/>
</g>
<path d="M456.601 601.201C454.356 600.964 452.258 600.387 451.721 599.267C451.578 598.968 451.523 598.631 451.564 598.299C451.604 597.967 451.738 597.654 451.948 597.402C452.117 597.165 452.332 596.969 452.579 596.826C452.826 596.683 453.099 596.596 453.38 596.57C456.341 596.078 462.003 600.387 462.23 600.557C462.301 600.609 462.354 600.683 462.383 600.768C462.412 600.852 462.416 600.945 462.393 601.032C462.369 601.115 462.323 601.19 462.259 601.247C462.196 601.304 462.118 601.341 462.035 601.354C460.223 601.482 458.404 601.431 456.601 601.201ZM454.242 597.351H453.429C453.094 597.399 452.791 597.582 452.583 597.86C452.225 598.368 452.306 598.623 452.371 598.809C453.071 600.065 457.447 600.608 460.701 600.506C458.751 599.023 456.54 597.957 454.194 597.368L454.242 597.351Z" fill="#263238"/>
<path d="M461.887 601.337H461.708C459.723 600.116 456.014 595.723 456.567 593.738C456.681 593.395 456.905 593.105 457.202 592.916C457.499 592.727 457.85 592.652 458.194 592.703C458.604 592.683 459.013 592.751 459.396 592.903C459.78 593.055 460.129 593.287 460.423 593.585C462.424 595.74 462.359 600.642 462.359 600.846C462.372 600.921 462.365 600.998 462.34 601.07C462.314 601.142 462.27 601.205 462.213 601.253L461.887 601.337ZM458.471 593.518L458.227 593.416C457.495 593.416 457.413 593.704 457.381 593.806C456.958 594.959 459.544 598.403 461.529 599.997C461.582 597.928 461.013 595.894 459.902 594.179C459.527 593.771 459.013 593.534 458.471 593.518Z" fill="#263238"/>
<path d="M465.045 598.336L486.667 599.387C487.012 599.412 487.339 599.561 487.591 599.808C487.843 600.055 488.005 600.386 488.05 600.744L490.506 615.485C490.618 615.982 490.618 616.499 490.506 616.995C490.337 617.438 490.046 617.819 489.669 618.091C489.293 618.362 488.849 618.512 488.391 618.522C477.247 618.827 450.094 617.945 443.05 617.351C435.762 616.741 435.387 609.141 438.43 608.7C452.047 606.766 457.415 602.984 461.987 599.337C462.409 598.968 462.896 598.69 463.421 598.518C463.945 598.347 464.498 598.285 465.045 598.336V598.336Z" fill="#263238"/>
<path d="M497.906 203.164C495.824 208.406 493.514 213.444 491.106 218.431C488.698 223.418 486.144 228.388 483.476 233.29C480.808 238.193 478.091 243.061 475.211 247.896C472.332 252.73 469.403 257.497 465.971 262.602L464.929 264.146C463.487 266.296 461.559 268.044 459.317 269.235C458.086 269.886 456.794 270.403 455.461 270.779C454.875 270.931 454.29 271.05 453.688 271.169L452.793 271.304H452.045C450.364 271.435 448.674 271.338 447.017 271.016C445.103 270.65 443.243 270.023 441.486 269.15C439.461 268.151 437.551 266.916 435.792 265.469C433.337 263.454 431.046 261.23 428.943 258.82C425.32 254.695 421.982 250.307 418.954 245.69C415.993 241.246 413.308 236.683 410.819 232.018C408.297 227.302 406.054 222.431 404.1 217.43C403.811 216.662 403.67 215.841 403.685 215.016C403.7 214.19 403.871 213.376 404.188 212.62C404.506 211.863 404.963 211.18 405.534 210.608C406.105 210.036 406.779 209.588 407.517 209.288C408.351 208.941 409.25 208.795 410.147 208.863C411.043 208.93 411.912 209.209 412.69 209.678H412.853C417.229 212.307 421.362 215.259 425.478 218.159L437.435 226.743C441.307 229.559 445.179 232.29 448.823 234.597C450.347 235.605 451.941 236.495 453.59 237.26C454.176 237.48 454.68 237.565 454.322 237.26C453.696 236.859 452.999 236.593 452.272 236.479C451.2 236.268 450.106 236.205 449.019 236.293H448.498H447.831C447.381 236.369 446.936 236.47 446.497 236.598C445.458 236.869 444.453 237.268 443.503 237.786L436.849 244.384L443.162 229.83C445.331 224.82 447.565 219.822 449.865 214.835C452.142 209.848 454.534 204.894 456.99 199.975C459.447 195.056 462.001 190.187 464.767 185.472C467.203 181.283 471.067 178.21 475.585 176.866C480.103 175.522 484.94 176.008 489.129 178.226C493.318 180.444 496.548 184.231 498.173 188.827C499.797 193.423 499.696 198.49 497.89 203.011L497.906 203.164Z" fill="#CE7A63"/>
<path d="M497.503 181.08C503.132 209.086 484.651 237.957 484.651 237.957C474.58 240.247 453.463 224.387 448.566 213.955C448.566 213.955 452.845 194.074 464.494 180.979C475.28 168.85 494.2 164.66 497.503 181.08Z" fill="#263238"/>
<g opacity="0.1">
<path d="M497.503 181.08C503.132 209.086 484.651 237.957 484.651 237.957C474.58 240.247 453.463 224.387 448.566 213.955C448.566 213.955 452.845 194.074 464.494 180.979C475.28 168.85 494.2 164.66 497.503 181.08Z" fill="black"/>
</g>
<path d="M411.845 209.391L404.183 216.465L393.576 212.767L387.67 209.052C386.667 208.309 385.952 207.217 385.654 205.973C385.356 204.728 385.494 203.414 386.043 202.267L388.597 195.719C389.048 194.338 389.996 193.194 391.241 192.529C392.486 191.865 393.93 191.731 395.268 192.157L400.864 194.481C402.492 195.162 403.934 196.251 405.061 197.653L411.845 209.391Z" fill="#CE7A63"/>
<path d="M494.574 167.933C515.251 163.557 541.932 157.755 563.879 158.739C577.577 159.367 587.941 167.221 588.966 196.194C589.568 212.902 584.98 247.744 585.37 264.045C586.346 305.164 586.46 323.636 586.46 323.636C586.46 323.636 570.745 319.582 459.921 326.113C455.61 245.844 467.372 209.068 476.955 183.878C483.511 166.814 486.439 169.731 494.574 167.933Z" fill="#263238"/>
<path opacity="0.2" d="M505.473 182.452L505.993 184.03L508.759 194.835L518.081 180.604L505.473 182.452Z" fill="black"/>
<path d="M501.763 170.359C504.204 167.322 507.165 168.662 508.092 164.371C508.373 161.053 507.539 157.737 505.733 154.99L536.123 133.719C536.628 146.085 537.051 155.771 542.728 160.198C545.104 169.222 529.713 180.011 507.767 182.335C493.873 183.827 498.249 174.718 501.763 170.359Z" fill="#CE7A63"/>
<path opacity="0.2" d="M506.305 156.059L531.001 146.916C525.583 158.044 514.586 164.948 508.224 163.031C508.155 160.576 507.495 158.179 506.305 156.059V156.059Z" fill="black"/>
<path d="M511.197 94.7368C527.596 89.1899 543.393 102.217 541.619 118.366C539.846 134.515 538.284 145.507 528.295 151.868C508.431 164.675 497.303 155.379 494.131 139.01C491.153 124.286 494.57 100.368 511.197 94.7368Z" fill="#CE7A63"/>
<path d="M507.359 141.675C506.661 141.821 505.954 141.911 505.244 141.946C505.133 141.947 505.026 141.903 504.944 141.824C504.863 141.746 504.813 141.638 504.805 141.522C504.804 141.407 504.846 141.295 504.922 141.21C504.997 141.125 505.101 141.073 505.211 141.064C506.996 141.015 508.745 140.528 510.316 139.644C511.887 138.76 513.237 137.504 514.257 135.975C514.282 135.924 514.318 135.879 514.361 135.842C514.403 135.805 514.453 135.778 514.506 135.762C514.56 135.747 514.616 135.742 514.671 135.75C514.726 135.757 514.779 135.776 514.826 135.806C514.875 135.835 514.917 135.875 514.951 135.922C514.984 135.969 515.009 136.022 515.022 136.079C515.036 136.136 515.039 136.195 515.03 136.253C515.022 136.311 515.002 136.367 514.973 136.416C514.103 137.777 512.982 138.943 511.674 139.846C510.367 140.749 508.9 141.371 507.359 141.675V141.675Z" fill="#263238"/>
<path d="M516.453 119.893C517.126 120.11 517.779 120.388 518.405 120.724C518.455 120.748 518.5 120.782 518.537 120.824C518.574 120.866 518.602 120.916 518.621 120.969C518.639 121.023 518.647 121.08 518.643 121.137C518.64 121.194 518.625 121.25 518.6 121.301C518.576 121.354 518.542 121.401 518.5 121.44C518.458 121.478 518.41 121.508 518.357 121.527C518.304 121.546 518.248 121.554 518.192 121.55C518.136 121.546 518.081 121.531 518.031 121.505C512.662 118.808 511.735 122.047 511.117 122.489C511.07 122.519 511.018 122.539 510.964 122.548C510.909 122.556 510.854 122.553 510.801 122.539C510.748 122.525 510.698 122.499 510.654 122.465C510.611 122.43 510.574 122.386 510.547 122.336C510.493 122.236 510.478 122.119 510.506 122.008C510.533 121.897 510.6 121.802 510.694 121.742C510.84 121.623 512.012 118.519 516.453 119.893Z" fill="#263238"/>
<path opacity="0.1" d="M521.695 121.25C520.697 120.998 519.645 121.149 518.75 121.674C518.925 121.896 519.165 122.051 519.433 122.115C519.847 122.136 520.26 122.071 520.648 121.922C521.037 121.773 521.392 121.545 521.695 121.25V121.25Z" fill="black"/>
<path opacity="0.1" d="M521.952 119.283C520.92 119.322 519.942 119.771 519.219 120.538C519.444 120.695 519.712 120.773 519.983 120.759C520.389 120.662 520.773 120.482 521.111 120.228C521.449 119.975 521.735 119.654 521.952 119.283Z" fill="black"/>
<path d="M499.292 122.421C499.959 122.653 500.611 122.931 501.244 123.252C501.345 123.304 501.423 123.396 501.459 123.507C501.496 123.618 501.489 123.74 501.439 123.846C501.389 123.952 501.302 124.033 501.195 124.071C501.088 124.109 500.971 124.101 500.87 124.05C495.501 121.336 494.574 124.592 493.955 125.033C493.907 125.063 493.852 125.083 493.796 125.09C493.74 125.098 493.683 125.094 493.628 125.078C493.574 125.062 493.522 125.035 493.478 124.998C493.434 124.961 493.397 124.916 493.37 124.864C493.341 124.814 493.323 124.759 493.316 124.702C493.309 124.644 493.313 124.586 493.328 124.53C493.343 124.475 493.369 124.423 493.404 124.378C493.44 124.333 493.483 124.297 493.532 124.27C493.711 124.168 494.85 121.047 499.292 122.421Z" fill="#263238"/>
<path d="M503.635 105.645C502.128 105.605 500.629 105.406 499.161 105.051C495.437 100.957 493.105 95.7003 492.523 90.0899C497.619 91.518 502.946 91.8127 508.158 90.955C518.798 88.8855 527.453 87.7151 536.482 91.0907C540.435 92.5665 544.421 94.4833 541.769 99.5722C541.753 99.5213 511.168 104.084 503.635 105.645Z" fill="#263238"/>
<path d="M536.676 144.184C536.676 144.184 537.164 131.7 530.999 129.376C526.346 127.679 533.244 116.602 527.468 115.381C524.995 114.567 525.386 106.035 525.386 103.999C525.386 103.999 535.066 99.9957 541.769 99.5547C542.175 101.777 543.395 107.103 544.176 111.87C544.176 111.836 541.752 124.796 536.676 144.184Z" fill="#263238"/>
<path d="M545.496 132.107C544.567 133.733 543.338 135.15 541.881 136.277C540.423 137.404 538.765 138.218 537.003 138.672C532.269 139.859 530.04 135.398 531.472 130.835C532.757 126.73 536.776 121.166 541.477 122.014C546.179 122.862 547.757 128.07 545.496 132.107Z" fill="#CE7A63"/>
<path d="M504.414 123.729L504.219 134.364C504.219 134.364 500.07 135.128 497.809 132.668C504.332 128.665 504.414 123.729 504.414 123.729Z" fill="#BA4D3C"/>
<path d="M517.089 115.874C517.211 115.804 517.312 115.701 517.383 115.575C517.454 115.45 517.491 115.307 517.491 115.162C517.491 115.016 517.454 114.874 517.383 114.748C517.312 114.623 517.211 114.52 517.089 114.449C515.974 113.805 514.729 113.448 513.456 113.406C512.182 113.365 510.918 113.641 509.768 114.212C509.675 114.265 509.594 114.337 509.529 114.423C509.463 114.509 509.414 114.607 509.386 114.713C509.357 114.819 509.349 114.929 509.361 115.038C509.374 115.147 509.407 115.253 509.459 115.349C509.564 115.539 509.737 115.68 509.941 115.74C510.144 115.8 510.362 115.775 510.549 115.671C511.464 115.232 512.465 115.025 513.472 115.066C514.478 115.107 515.461 115.396 516.34 115.908C516.458 115.966 516.588 115.992 516.718 115.986C516.849 115.981 516.976 115.942 517.089 115.874Z" fill="#263238"/>
<path d="M493.384 118.741C493.509 118.785 493.644 118.795 493.774 118.772C493.905 118.748 494.028 118.691 494.132 118.605C494.897 117.93 495.806 117.458 496.783 117.227C497.76 116.997 498.776 117.016 499.745 117.282C499.943 117.346 500.158 117.328 500.344 117.229C500.529 117.131 500.67 116.961 500.737 116.756C500.805 116.544 500.79 116.314 500.695 116.114C500.601 115.914 500.435 115.76 500.233 115.687C499.007 115.354 497.722 115.334 496.487 115.63C495.252 115.925 494.104 116.527 493.14 117.383C493.057 117.451 492.988 117.535 492.937 117.631C492.886 117.727 492.853 117.832 492.841 117.94C492.829 118.049 492.838 118.159 492.867 118.265C492.896 118.37 492.944 118.468 493.009 118.554C493.115 118.652 493.245 118.716 493.384 118.741V118.741Z" fill="#263238"/>
<path d="M491.562 188.289C491.823 185.965 493.027 183.539 493.433 181.232C494.588 174.447 501.34 162.827 508.075 161.402C507.896 167.831 505.082 182.453 505.082 182.453C502.219 182.861 495.044 183.929 491.562 188.289Z" fill="#263238"/>
<path d="M539.197 156.059C538.432 160.605 522.765 177.619 517.738 180.622C525.368 180.248 530.591 181.639 535.894 185.185C542.971 177.619 544.793 159.401 544.924 159.265C545.2 156.873 541.393 155.296 539.197 156.059Z" fill="#263238"/>
<path d="M575.2 206.761C594.397 199.67 587.695 196.447 590.493 195.396C590.987 194.226 591.374 193.011 591.648 191.766C591.778 191.104 591.892 190.426 591.973 189.747V188.933V188.136V186.829V185.93V185.404L591.876 184.675C591.876 184.522 591.876 184.59 591.876 184.675L592.266 185.964L593.34 189.357L595.796 196.838C597.423 201.926 599.213 207.134 600.856 212.376C601.686 214.988 602.581 217.6 603.378 220.229L604.647 224.301C605.216 225.997 605.704 227.829 606.16 229.661C608.097 237.37 608.506 245.41 607.364 253.29C607.201 254.376 607.103 254.885 606.973 255.614L606.664 257.836L605.899 261.958L604.272 270.185C603.166 275.648 602.011 281.127 600.807 286.589C598.367 297.53 592.901 314.849 589.598 325.604C587.971 330.692 583.497 333.983 578.568 332.389C574.81 331.15 574.387 320.837 574.11 316.969C573.329 305.621 573.183 294.341 573.28 283.043C573.28 277.412 573.443 271.797 573.606 266.08L573.899 257.599L574.273 249.474C574.154 246.213 573.494 242.999 572.32 239.974C572.011 239.109 571.67 238.278 571.279 237.379L569.652 233.613C568.546 231.035 567.537 228.406 566.48 225.81C564.365 220.586 562.396 215.276 560.46 209.865C559.533 207.151 558.573 204.403 557.711 201.502C557.272 200.06 556.816 198.585 556.377 196.939C556.165 196.108 555.938 195.243 555.694 194.174C555.58 193.648 555.45 193.038 555.303 192.207C555.222 191.749 555.141 191.291 555.027 190.51L554.945 189.73C554.945 189.391 554.945 189.221 554.945 188.56V187.067V186.202L555.027 185.32C555.101 184.618 555.215 183.921 555.368 183.233C555.629 181.968 556.016 180.734 556.523 179.552C559.322 178.467 552.651 175.227 571.849 168.119C574.279 167.891 576.728 168.164 579.057 168.923C581.387 169.681 583.549 170.911 585.423 172.541C587.296 174.172 588.843 176.171 589.975 178.424C591.108 180.678 591.803 183.142 592.022 185.676C592.241 188.21 591.979 190.764 591.252 193.192C590.524 195.621 589.345 197.876 587.781 199.829C586.217 201.782 584.3 203.395 582.139 204.576C579.977 205.756 577.614 206.482 575.184 206.71L575.2 206.761Z" fill="#CE7A63"/>
<path d="M575.803 321.516L585.679 323.653C594.643 329.573 585.467 342.516 585.467 342.516L582.994 349.538C582.48 350.75 581.569 351.733 580.425 352.31C579.281 352.888 577.978 353.024 576.747 352.694L569.816 351.252C568.375 351.048 567.066 350.266 566.17 349.071C565.273 347.877 564.86 346.365 565.017 344.857L566.205 338.445C566.547 336.581 567.324 334.833 568.466 333.356L575.803 321.516Z" fill="#CE7A63"/>
<path d="M582.425 166.815C597.49 189.851 601.639 205.83 601.639 205.83C601.639 205.83 581.563 229.849 563.179 223.183C563.179 223.183 551.791 202.285 551.449 184.355C551.108 167.833 572.03 151.056 582.425 166.815Z" fill="#263238"/>
<path opacity="0.1" d="M582.425 166.815C597.49 189.851 601.639 205.83 601.639 205.83C601.639 205.83 581.563 229.849 563.179 223.183C563.179 223.183 551.791 202.285 551.449 184.355C551.108 167.833 572.03 151.056 582.425 166.815Z" fill="white"/>
<path d="M288.876 174.346C288.111 181.131 287.086 188.018 285.963 194.803C285.41 198.196 284.841 201.588 284.206 204.981C283.572 208.373 283.003 211.766 282.303 215.159L278.301 235.514C277.742 238.239 277.41 241.008 277.308 243.792C277.259 246.552 277.444 249.311 277.862 252.036L277.666 251.069C278.61 255.593 279.488 260.088 280.302 264.555C281.115 269.067 281.831 273.613 282.563 278.125L283.523 284.91L284.385 291.696C284.873 296.293 285.361 300.89 285.573 305.571C285.629 306.981 285.218 308.368 284.411 309.5C283.603 310.632 282.447 311.44 281.136 311.79C279.825 312.14 278.439 312.009 277.209 311.421C275.979 310.832 274.98 309.821 274.38 308.557C272.411 304.367 270.703 300.075 269.011 295.801L266.587 289.355L264.277 282.875C262.813 278.532 261.349 274.207 259.982 269.83C258.616 265.454 257.298 261.094 256.045 256.701V256.413L255.915 255.717C255.198 251.643 254.828 247.51 254.809 243.368C254.841 239.243 255.217 235.128 255.931 231.07C256.566 227.304 257.168 224.2 257.688 220.892L259.315 210.714C259.836 207.322 260.47 203.929 261.072 200.537C261.674 197.144 262.292 193.751 262.959 190.359C264.277 183.574 265.676 176.788 267.368 170.122C268.063 167.305 269.758 164.868 272.111 163.305C274.464 161.742 277.299 161.17 280.041 161.705C282.784 162.24 285.229 163.842 286.881 166.185C288.533 168.529 289.27 171.44 288.941 174.329L288.876 174.346Z" fill="#FFB573"/>
<path d="M281.357 158.112C281.357 158.112 270.262 156.162 263.836 168.799C259.101 178.078 253.098 212.14 254.188 212.36C255.278 212.581 285.213 219.145 285.213 219.145C285.213 219.145 304.345 157.875 281.357 158.112Z" fill="#263238"/>
<path opacity="0.1" d="M281.357 158.112C281.357 158.112 270.262 156.162 263.836 168.799C259.101 178.078 253.098 212.14 254.188 212.36C255.278 212.581 285.213 219.145 285.213 219.145C285.213 219.145 304.345 157.875 281.357 158.112Z" fill="black"/>
<path d="M291.071 137.4C284.206 132.311 277.91 126.018 274.802 117.875C271.695 109.733 272.557 99.6232 278.414 93.3638C278.886 92.8549 279.52 92.3461 280.155 92.5835C280.789 92.821 280.919 93.3299 281.115 93.8558C286.451 108.003 284.71 123.829 291.071 137.4Z" fill="#263238"/>
<path d="M291.853 126.408C292.959 136.586 293.122 153.549 285.817 159.69C285.817 159.69 285.378 170.037 311.847 183.523C322.91 169.579 315.979 162.268 315.979 162.268C305.339 158.655 306.56 152.192 309.049 144.491L291.853 126.408Z" fill="#FFB573"/>
<path d="M317.688 159.571C321.764 159.785 325.729 161.031 329.239 163.201C336.934 168.086 339.911 175.788 339.911 189.256C339.911 207.22 340.855 199.214 339.911 208.865L339.228 282.926L273.046 279.245C273.046 279.245 271.257 249.848 270.818 232.919C270.069 204.421 260.015 191.02 265.172 169.63C266.685 163.32 274.771 157.383 285.15 157.383L317.688 159.571Z" fill="#263238"/>
<path d="M282.629 157.381L282.922 155.295C283.027 154.583 283.392 153.942 283.941 153.505C284.49 153.069 285.18 152.871 285.866 152.954L308.269 155.685L314.939 159.553C314.939 159.553 295.335 162.114 282.629 157.381Z" fill="#263238"/>
<path opacity="0.2" d="M282.629 157.381L282.922 155.295C283.027 154.583 283.392 153.942 283.941 153.505C284.49 153.069 285.18 152.871 285.866 152.954L308.269 155.685L314.939 159.553C314.939 159.553 295.335 162.114 282.629 157.381Z" fill="white"/>
<path d="M239.594 590.345L253.536 595.688L288.921 513.927L266.893 505.496L239.594 590.345Z" fill="#FFB573"/>
<path opacity="0.2" d="M288.923 513.927L259.07 582.898L243.68 577.606L266.895 505.496L288.923 513.927Z" fill="black"/>
<path d="M259.283 597.656C261.072 598.334 262.91 598.707 263.74 598.08C263.961 597.904 264.123 597.661 264.205 597.384C264.286 597.107 264.283 596.811 264.196 596.536C264.088 596.034 263.796 595.595 263.382 595.315C261.251 593.771 255.427 594.891 255.248 594.942C255.179 594.96 255.116 594.998 255.067 595.052C255.018 595.106 254.985 595.174 254.971 595.247C254.963 595.323 254.975 595.4 255.007 595.469C255.039 595.538 255.088 595.596 255.15 595.637C256.473 596.426 257.855 597.102 259.283 597.656V597.656ZM262.39 595.603C262.607 595.687 262.814 595.795 263.008 595.926C263.133 596.006 263.241 596.112 263.325 596.238C263.409 596.363 263.467 596.505 263.496 596.655C263.61 597.181 263.496 597.367 263.333 597.469C262.39 598.182 258.827 596.875 256.322 595.518C258.33 595.131 260.392 595.16 262.39 595.603V595.603Z" fill="#263238"/>
<path d="M255.151 595.654H255.297C257.233 595.467 261.577 593.516 261.805 591.735C261.805 591.328 261.805 590.734 260.861 590.293C260.546 590.133 260.203 590.042 259.853 590.027C259.503 590.013 259.154 590.075 258.827 590.209C256.566 591.091 254.972 594.958 254.907 595.111C254.878 595.168 254.863 595.232 254.863 595.297C254.863 595.362 254.878 595.426 254.907 595.484C254.933 595.529 254.968 595.568 255.01 595.598C255.053 595.627 255.101 595.646 255.151 595.654V595.654ZM260.422 590.921L260.617 591.006C261.203 591.294 261.154 591.566 261.138 591.65C260.991 592.702 257.884 594.381 255.867 594.839C256.531 593.219 257.67 591.859 259.12 590.955C259.535 590.775 259.999 590.763 260.422 590.921V590.921Z" fill="#263238"/>
<path d="M254.287 593.041L238.929 587.308C238.654 587.207 238.354 587.21 238.081 587.315C237.808 587.421 237.579 587.622 237.432 587.884L230.632 600.047C230.468 600.347 230.369 600.682 230.343 601.026C230.317 601.371 230.363 601.717 230.48 602.041C230.596 602.365 230.78 602.658 231.017 602.9C231.254 603.141 231.539 603.325 231.852 603.439C237.416 605.407 245.518 608.036 252.481 610.632C260.616 613.668 255.881 612.43 265.496 615.975C271.272 618.129 274.753 612.582 272.508 611.107C262.275 604.474 265.008 605.187 257.394 595.45C256.594 594.361 255.518 593.526 254.287 593.041V593.041Z" fill="#263238"/>
<path d="M322.617 279.244L320.6 393.185C320.161 443.107 305.372 490.603 285.02 535.792L265.774 578.573L240.785 569.956L272.054 451.215L274.592 351.523C268.41 337.071 266.457 321.77 268.458 309.845C269.63 302.755 270.899 295.664 271.81 288.54L272.997 279.244H322.617Z" fill="#263238"/>
<path opacity="0.2" d="M322.617 279.244L320.6 393.185C320.161 443.107 305.372 490.603 285.02 535.792L265.774 578.573L240.785 569.956L272.054 451.215L274.592 351.523C268.41 337.071 266.457 321.77 268.458 309.845C269.63 302.755 270.899 295.664 271.81 288.54L272.997 279.244H322.617Z" fill="black"/>
<path d="M238.148 569.955L267.628 581.524C267.877 581.621 268.153 581.62 268.402 581.52C268.65 581.42 268.856 581.228 268.978 580.981L274.493 570.261C274.579 570.109 274.631 569.938 274.644 569.762C274.656 569.586 274.631 569.409 274.568 569.246C274.505 569.082 274.407 568.935 274.281 568.817C274.155 568.699 274.005 568.612 273.842 568.564L240.28 557.708C240.128 557.66 239.967 557.646 239.81 557.669C239.653 557.691 239.502 557.748 239.367 557.837C239.233 557.925 239.119 558.043 239.032 558.182C238.945 558.32 238.888 558.477 238.864 558.641L237.449 568.666C237.395 568.933 237.436 569.211 237.565 569.448C237.694 569.686 237.901 569.866 238.148 569.955Z" fill="#263238"/>
<path d="M324.392 605.204H340.515L347.25 508.125H321.789L324.392 605.204Z" fill="#FFB573"/>
<path opacity="0.2" d="M347.25 508.125L341.556 590.226H324.002L321.789 508.125H347.25Z" fill="black"/>
<path d="M346.109 603.576C347.98 603.576 349.786 603.304 350.387 602.422C350.543 602.191 350.626 601.916 350.626 601.633C350.626 601.351 350.543 601.076 350.387 600.845C350.273 600.633 350.117 600.449 349.929 600.306C349.741 600.162 349.526 600.063 349.297 600.014C346.873 599.318 341.765 602.354 341.554 602.473C341.491 602.508 341.441 602.564 341.412 602.631C341.383 602.699 341.375 602.774 341.391 602.846C341.4 602.921 341.432 602.991 341.481 603.046C341.531 603.101 341.596 603.138 341.667 603.152C343.134 603.425 344.619 603.567 346.109 603.576V603.576ZM348.419 600.624C348.644 600.616 348.869 600.644 349.086 600.709C349.223 600.74 349.353 600.799 349.468 600.884C349.582 600.968 349.679 601.076 349.753 601.201C349.997 601.659 349.916 601.88 349.834 601.998C349.151 602.982 345.458 603.016 342.741 602.609C344.493 601.572 346.421 600.898 348.419 600.624V600.624Z" fill="#263238"/>
<path d="M341.65 603.152H341.78C343.554 602.338 347.035 599.047 346.775 597.316C346.775 596.909 346.433 596.417 345.49 596.316C345.147 596.275 344.799 596.308 344.469 596.413C344.139 596.518 343.833 596.693 343.57 596.926C341.715 598.521 341.325 602.626 341.308 602.795C341.301 602.846 341.305 602.897 341.319 602.945C341.333 602.994 341.357 603.038 341.39 603.076C341.423 603.113 341.463 603.143 341.508 603.162C341.553 603.181 341.602 603.189 341.65 603.186V603.152ZM345.197 596.994H345.408C346.026 596.994 346.075 597.316 346.092 597.401C346.238 598.436 343.879 601.014 342.073 602.151C342.239 600.414 342.915 598.773 344.009 597.452C344.354 597.147 344.794 596.985 345.246 596.994H345.197Z" fill="#263238"/>
<path d="M339.682 601.031H324.568C324.287 601.037 324.016 601.143 323.8 601.331C323.584 601.519 323.436 601.778 323.38 602.066L320.647 615.636C320.574 615.955 320.571 616.287 320.637 616.608C320.703 616.929 320.836 617.23 321.028 617.49C321.22 617.75 321.465 617.962 321.745 618.111C322.025 618.26 322.334 618.342 322.648 618.35C328.098 618.249 335.972 617.892 342.822 617.892C350.842 617.892 357.756 618.367 367.225 618.367C372.903 618.367 374.481 612.057 372.105 611.48C361.27 608.885 352.436 608.614 343.082 602.27C342.091 601.514 340.908 601.083 339.682 601.031V601.031Z" fill="#263238"/>
<path d="M283.081 279.277H273.075C271.448 321.685 287.115 343.737 288.124 345.891L292.354 354.83C296.6 363.77 313.503 452.045 313.503 452.045C310.054 481.425 315.732 511.738 317.538 541.271L320.418 585.137H346.676L355.152 477.778C356.859 462.446 356.99 446.967 355.542 431.605C340.005 282.958 339.273 279.277 339.273 279.277H283.081Z" fill="#263238"/>
<path d="M318.289 587.342L349.769 586.46C350.037 586.45 350.293 586.34 350.49 586.15C350.687 585.96 350.812 585.703 350.843 585.425L352.047 573.331C352.064 573.162 352.045 572.992 351.992 572.831C351.939 572.671 351.853 572.525 351.739 572.404C351.626 572.282 351.488 572.188 351.336 572.129C351.184 572.069 351.021 572.045 350.859 572.058L315.832 575.213C315.675 575.23 315.523 575.282 315.386 575.366C315.25 575.45 315.132 575.563 315.041 575.698C314.95 575.833 314.888 575.987 314.859 576.149C314.83 576.311 314.834 576.478 314.872 576.638L317.199 586.477C317.255 586.731 317.395 586.956 317.594 587.114C317.793 587.272 318.039 587.353 318.289 587.342V587.342Z" fill="#263238"/>
<path opacity="0.2" d="M298.863 133.684L309.015 144.472C308.398 146.256 307.94 148.096 307.648 149.968C303.532 149.001 297.317 144.777 296.797 140.011C296.978 137.757 297.688 135.584 298.863 133.684V133.684Z" fill="black"/>
<path d="M321.038 96.3328C320.89 93.9204 320.248 91.5691 319.156 89.4364C318.065 87.3037 316.549 85.4388 314.71 83.9668C315.082 85.9297 314.777 87.9665 313.848 89.7172L321.038 96.3328Z" fill="#263238"/>
<path d="M282.418 111.717C285.314 127.798 286.225 134.651 295.075 141.928C308.383 152.903 326.702 145.66 328.475 129.002C330.102 113.99 325.026 90.1232 308.952 85.7637C305.429 84.7611 301.719 84.7155 298.174 85.6314C294.629 86.5472 291.368 88.3939 288.702 90.9956C286.035 93.5974 284.052 96.8675 282.94 100.495C281.829 104.122 281.627 107.985 282.353 111.717H282.418Z" fill="#FFB573"/>
<path d="M309.261 112.702C309.44 114.025 310.237 115.009 311.051 114.907C311.864 114.805 312.434 113.635 312.287 112.312C312.141 110.989 311.311 110.022 310.498 110.107C309.684 110.192 309.115 111.447 309.261 112.702Z" fill="#263238"/>
<path d="M323.558 110.869C323.737 112.209 324.534 113.159 325.348 113.074C326.161 112.99 326.731 111.785 326.584 110.479C326.438 109.173 325.608 108.172 324.795 108.291C323.981 108.41 323.412 109.546 323.558 110.869Z" fill="#263238"/>
<path d="M319.656 110.445C321.989 114.202 324.82 117.594 328.067 120.521C327.306 121.405 326.376 122.112 325.336 122.598C324.296 123.083 323.171 123.335 322.032 123.337L319.656 110.445Z" fill="#ED893E"/>
<path d="M303.014 107.612C303.157 107.686 303.32 107.707 303.476 107.674C303.632 107.64 303.773 107.553 303.876 107.426C304.797 106.589 305.873 105.96 307.038 105.578C308.202 105.196 309.43 105.068 310.644 105.204C310.836 105.224 311.029 105.166 311.181 105.042C311.333 104.918 311.433 104.737 311.461 104.538C311.488 104.338 311.44 104.135 311.328 103.972C311.215 103.808 311.046 103.696 310.856 103.66V103.66C309.39 103.473 307.902 103.623 306.497 104.097C305.093 104.572 303.804 105.361 302.721 106.408C302.652 106.479 302.598 106.563 302.56 106.657C302.523 106.75 302.504 106.85 302.504 106.951C302.504 107.052 302.523 107.152 302.56 107.245C302.598 107.338 302.652 107.423 302.721 107.494V107.494C302.76 107.533 302.805 107.565 302.856 107.585C302.906 107.605 302.96 107.615 303.014 107.612V107.612Z" fill="#263238"/>
<path d="M326.34 102.642C326.472 102.616 326.594 102.553 326.694 102.461C326.794 102.368 326.869 102.249 326.91 102.117C326.972 101.919 326.958 101.703 326.87 101.516C326.781 101.329 326.626 101.185 326.438 101.116C325.31 100.675 324.096 100.529 322.902 100.692C321.707 100.854 320.57 101.32 319.589 102.049C319.435 102.167 319.333 102.344 319.302 102.54C319.272 102.737 319.316 102.938 319.426 103.1C319.426 103.1 319.426 103.1 319.426 103.1C319.55 103.258 319.729 103.359 319.923 103.381C320.118 103.404 320.313 103.345 320.467 103.219C321.252 102.676 322.15 102.335 323.086 102.223C324.021 102.111 324.969 102.231 325.852 102.575C326.001 102.661 326.175 102.686 326.34 102.642Z" fill="#263238"/>
<path d="M296.455 97.6035C295.132 103.313 294.277 109.13 293.901 114.991C292.062 115.601 293.104 115.466 291.281 116.076C291.639 119.234 292.758 122.245 294.535 124.829C292.797 125.703 290.884 126.133 288.955 126.084C288.439 124.276 287.393 122.681 285.963 121.525C284.533 120.369 282.792 119.709 280.983 119.638C278.687 113.324 278.042 106.486 279.112 99.8257C284.927 99.4074 290.716 98.6656 296.455 97.6035Z" fill="#263238"/>
<path d="M315.62 83.5249C316.738 85.6712 317.1 88.1581 316.642 90.5536C316.184 92.949 314.936 95.1015 313.115 96.6373C313.115 94.941 313.115 93.2447 313.115 91.5484C311.264 94.4917 308.929 97.0702 306.217 99.1648C306.396 97.4685 306.607 96.2471 306.786 94.6356C304.573 97.3804 301.792 99.5667 298.652 101.031C299.861 99.2717 300.683 97.256 301.06 95.1276C298.301 98.5347 294.757 101.155 290.761 102.744C291.586 101.618 292.062 100.257 292.128 98.8425C288.76 99.8093 285.376 100.725 281.976 101.557C280.927 101.965 279.772 101.965 278.722 101.557C277.096 100.641 277.096 98.1639 277.665 96.4676C278.766 92.8289 280.922 89.6354 283.835 87.3267C286.748 85.018 290.277 83.7076 293.934 83.5758C296.475 83.5958 299.006 83.2359 301.45 82.5071C303.912 81.5767 306.485 81.0059 309.096 80.8108C311.618 80.5394 314.237 81.167 315.62 83.5249Z" fill="#263238"/>
<path d="M279.683 124.727C280.342 126.109 281.256 127.341 282.373 128.354C283.489 129.367 284.787 130.14 286.19 130.63C289.948 131.885 292.015 128.425 291.071 124.608C290.225 121.216 287.28 116.398 283.441 116.72C282.593 116.818 281.782 117.137 281.084 117.648C280.386 118.159 279.824 118.846 279.449 119.645C279.074 120.444 278.898 121.329 278.939 122.218C278.98 123.106 279.236 123.969 279.683 124.727V124.727Z" fill="#FFB573"/>
<path d="M391.256 216.922L401.018 210.137L405.004 206.558C405.004 206.558 395.698 195.108 394.51 194.361C394.51 194.361 387.596 198.551 385.221 205.082L383.496 211.324L391.256 216.922Z" fill="#FFB573"/>
<path d="M401.65 209.391L394.004 194.853L396.737 193.157C396.982 192.953 397.265 192.806 397.569 192.726C397.872 192.646 398.189 192.635 398.497 192.692C398.805 192.75 399.098 192.876 399.355 193.062C399.613 193.247 399.83 193.488 399.991 193.768L405.962 200.044C406.921 201.74 407.588 203.996 406.401 205.421L401.65 209.391Z" fill="#FFB573"/>
<path opacity="0.1" d="M309.848 180.23C309.848 180.23 310.498 229.253 317.445 229.203C324.392 229.152 336.301 220.026 334.446 207.88C332.592 195.735 309.848 180.23 309.848 180.23Z" fill="black"/>
<path d="M337.536 173.379C338.935 177.976 340.187 182.623 341.408 187.271C342.628 191.919 343.783 196.584 344.873 201.283C345.963 205.982 347.053 210.663 348.127 215.396C349.2 220.129 350.144 224.827 351.087 229.56L350.681 228.407C350.502 228.197 350.271 228.044 350.014 227.966C349.804 227.88 349.572 227.88 349.363 227.966C349.182 228.046 349.025 228.175 348.907 228.339C348.745 228.457 348.436 228.661 348.452 228.729C348.468 228.797 348.55 228.831 348.761 228.729L349.477 228.135C353.121 225.828 356.847 223.64 360.523 221.35C364.2 219.06 367.991 216.974 371.7 214.768C375.409 212.563 379.216 210.477 383.088 208.424C386.96 206.372 390.735 204.302 394.623 202.368C395.473 201.95 396.437 201.857 397.347 202.103C398.257 202.35 399.055 202.921 399.603 203.718C400.15 204.515 400.413 205.487 400.344 206.464C400.275 207.442 399.88 208.364 399.227 209.069C396.223 212.292 393.153 215.441 390.019 218.517C386.928 221.621 383.755 224.624 380.599 227.66C377.443 230.697 374.254 233.665 371.017 236.549C367.779 239.432 364.591 242.452 361.256 245.285L361.971 244.691C360.917 245.74 359.761 246.672 358.522 247.473C357.053 248.411 355.465 249.131 353.804 249.61C350.669 250.516 347.372 250.633 344.185 249.952C340.997 249.271 338.01 247.811 335.469 245.692C332.874 243.51 330.802 240.728 329.417 237.567L329.027 236.396C327.4 231.901 325.627 227.406 324.016 222.826C322.406 218.246 320.762 213.768 319.233 209.255C317.704 204.743 316.191 200.146 314.727 195.566C313.262 190.986 311.896 186.389 310.627 181.741C309.62 178.034 310.05 174.063 311.825 170.684C313.6 167.304 316.577 164.787 320.115 163.674C323.653 162.562 327.468 162.943 330.739 164.736C334.01 166.529 336.474 169.59 337.601 173.26L337.536 173.379Z" fill="#FFB573"/>
<path d="M319.981 163.268C319.981 163.268 308.772 166.117 309.52 176.6C310.269 187.084 318.143 220.467 319.282 220.144C320.42 219.822 350.192 209.39 350.192 209.39C350.192 209.39 340.529 152.53 319.981 163.268Z" fill="#263238"/>
<path d="M324.975 127.493C324.975 127.493 320.957 126.288 309.52 126.051C309.924 128.264 311.093 130.246 312.805 131.622C314.517 132.997 316.653 133.671 318.809 133.515C320.311 133.618 321.792 133.105 322.936 132.084C324.079 131.063 324.793 129.616 324.926 128.052L324.975 127.493Z" fill="#263238"/>
<path d="M316.288 130.258C318.549 130.16 320.77 130.906 322.552 132.361C321.461 133.149 320.152 133.542 318.826 133.481C316.565 133.575 314.345 132.83 312.562 131.377C313.64 130.56 314.959 130.164 316.288 130.258V130.258Z" fill="#ED893E"/>
<path d="M324.453 127.375C324.328 127.845 324.086 128.274 323.752 128.616C323.418 128.958 323.003 129.203 322.55 129.325C319.163 129.224 315.792 128.798 312.479 128.053C311.936 127.969 311.425 127.736 310.996 127.379C310.567 127.021 310.237 126.551 310.039 126.018C314.873 126.027 319.696 126.481 324.453 127.375Z" fill="white"/>
</svg>
